%TF.GenerationSoftware,KiCad,Pcbnew,9.0.0*%
%TF.CreationDate,2025-06-22T11:43:04-03:00*%
%TF.ProjectId,shield arduino,73686965-6c64-4206-9172-6475696e6f2e,rev?*%
%TF.SameCoordinates,Original*%
%TF.FileFunction,Copper,L2,Bot*%
%TF.FilePolarity,Positive*%
%FSLAX46Y46*%
G04 Gerber Fmt 4.6, Leading zero omitted, Abs format (unit mm)*
G04 Created by KiCad (PCBNEW 9.0.0) date 2025-06-22 11:43:04*
%MOMM*%
%LPD*%
G01*
G04 APERTURE LIST*
G04 Aperture macros list*
%AMRoundRect*
0 Rectangle with rounded corners*
0 $1 Rounding radius*
0 $2 $3 $4 $5 $6 $7 $8 $9 X,Y pos of 4 corners*
0 Add a 4 corners polygon primitive as box body*
4,1,4,$2,$3,$4,$5,$6,$7,$8,$9,$2,$3,0*
0 Add four circle primitives for the rounded corners*
1,1,$1+$1,$2,$3*
1,1,$1+$1,$4,$5*
1,1,$1+$1,$6,$7*
1,1,$1+$1,$8,$9*
0 Add four rect primitives between the rounded corners*
20,1,$1+$1,$2,$3,$4,$5,0*
20,1,$1+$1,$4,$5,$6,$7,0*
20,1,$1+$1,$6,$7,$8,$9,0*
20,1,$1+$1,$8,$9,$2,$3,0*%
G04 Aperture macros list end*
%TA.AperFunction,ComponentPad*%
%ADD10R,2.030000X1.730000*%
%TD*%
%TA.AperFunction,ComponentPad*%
%ADD11O,2.030000X1.730000*%
%TD*%
%TA.AperFunction,ComponentPad*%
%ADD12R,1.800000X1.800000*%
%TD*%
%TA.AperFunction,ComponentPad*%
%ADD13C,1.800000*%
%TD*%
%TA.AperFunction,ComponentPad*%
%ADD14C,1.600000*%
%TD*%
%TA.AperFunction,ComponentPad*%
%ADD15O,1.600000X1.600000*%
%TD*%
%TA.AperFunction,ComponentPad*%
%ADD16R,1.700000X1.700000*%
%TD*%
%TA.AperFunction,ComponentPad*%
%ADD17O,1.700000X1.700000*%
%TD*%
%TA.AperFunction,ComponentPad*%
%ADD18C,3.200000*%
%TD*%
%TA.AperFunction,ComponentPad*%
%ADD19R,1.730000X2.030000*%
%TD*%
%TA.AperFunction,ComponentPad*%
%ADD20O,1.730000X2.030000*%
%TD*%
%TA.AperFunction,ComponentPad*%
%ADD21RoundRect,0.250000X0.550000X-0.550000X0.550000X0.550000X-0.550000X0.550000X-0.550000X-0.550000X0*%
%TD*%
%TA.AperFunction,ComponentPad*%
%ADD22R,3.000000X3.000000*%
%TD*%
%TA.AperFunction,ComponentPad*%
%ADD23C,3.000000*%
%TD*%
%TA.AperFunction,ViaPad*%
%ADD24C,1.500000*%
%TD*%
%TA.AperFunction,Conductor*%
%ADD25C,1.000000*%
%TD*%
%TA.AperFunction,Conductor*%
%ADD26C,0.700000*%
%TD*%
%TA.AperFunction,Conductor*%
%ADD27C,0.500000*%
%TD*%
G04 APERTURE END LIST*
D10*
%TO.P,J18,1,Pin_1*%
%TO.N,Earth*%
X156094700Y-92295200D03*
D11*
%TO.P,J18,2,Pin_2*%
%TO.N,+5V*%
X156094700Y-94835200D03*
%TO.P,J18,3,Pin_3*%
%TO.N,Vdrive*%
X156094700Y-97375200D03*
%TD*%
D12*
%TO.P,D1,1,K*%
%TO.N,Net-(D1-K)*%
X155951200Y-112192000D03*
D13*
%TO.P,D1,2,A*%
%TO.N,+5V*%
X158491200Y-112192000D03*
%TD*%
D14*
%TO.P,R1,1*%
%TO.N,Net-(D1-K)*%
X145427900Y-110972800D03*
D15*
%TO.P,R1,2*%
%TO.N,Earth*%
X137807900Y-110972800D03*
%TD*%
D16*
%TO.P,J2,1,Pin_1*%
%TO.N,/SCL{slash}A5*%
X153124100Y-65176600D03*
D17*
%TO.P,J2,2,Pin_2*%
%TO.N,/SDA{slash}A4*%
X155664100Y-65176600D03*
%TO.P,J2,3,Pin_3*%
%TO.N,/AREF*%
X158204100Y-65176600D03*
%TO.P,J2,4,Pin_4*%
%TO.N,Earth*%
X160744100Y-65176600D03*
%TO.P,J2,5,Pin_5*%
%TO.N,/13*%
X163284100Y-65176600D03*
%TO.P,J2,6,Pin_6*%
%TO.N,/12*%
X165824100Y-65176600D03*
%TO.P,J2,7,Pin_7*%
%TO.N,/\u002A11*%
X168364100Y-65176600D03*
%TO.P,J2,8,Pin_8*%
%TO.N,/\u002A10*%
X170904100Y-65176600D03*
%TO.P,J2,9,Pin_9*%
%TO.N,/\u002A9*%
X173444100Y-65176600D03*
%TO.P,J2,10,Pin_10*%
%TO.N,/8*%
X175984100Y-65176600D03*
%TD*%
D14*
%TO.P,R2,1*%
%TO.N,/13*%
X146926500Y-72618800D03*
D15*
%TO.P,R2,2*%
%TO.N,Net-(J10-Pin_1)*%
X139306500Y-72618800D03*
%TD*%
D16*
%TO.P,J15,1,Pin_1*%
%TO.N,/SCL{slash}A5*%
X153124100Y-67716600D03*
D17*
%TO.P,J15,2,Pin_2*%
%TO.N,/SDA{slash}A4*%
X155664100Y-67716600D03*
%TO.P,J15,3,Pin_3*%
%TO.N,/AREF*%
X158204100Y-67716600D03*
%TO.P,J15,4,Pin_4*%
%TO.N,Earth*%
X160744100Y-67716600D03*
%TO.P,J15,5,Pin_5*%
%TO.N,/13*%
X163284100Y-67716600D03*
%TO.P,J15,6,Pin_6*%
%TO.N,/12*%
X165824100Y-67716600D03*
%TO.P,J15,7,Pin_7*%
%TO.N,/\u002A11*%
X168364100Y-67716600D03*
%TO.P,J15,8,Pin_8*%
%TO.N,/\u002A10*%
X170904100Y-67716600D03*
%TO.P,J15,9,Pin_9*%
%TO.N,/\u002A9*%
X173444100Y-67716600D03*
%TO.P,J15,10,Pin_10*%
%TO.N,/8*%
X175984100Y-67716600D03*
%TD*%
D16*
%TO.P,J16,1,Pin_1*%
%TO.N,/7*%
X180048100Y-67716600D03*
D17*
%TO.P,J16,2,Pin_2*%
%TO.N,/\u002A6*%
X182588100Y-67716600D03*
%TO.P,J16,3,Pin_3*%
%TO.N,/\u002A5*%
X185128100Y-67716600D03*
%TO.P,J16,4,Pin_4*%
%TO.N,/4*%
X187668100Y-67716600D03*
%TO.P,J16,5,Pin_5*%
%TO.N,/\u002A3*%
X190208100Y-67716600D03*
%TO.P,J16,6,Pin_6*%
%TO.N,/2*%
X192748100Y-67716600D03*
%TO.P,J16,7,Pin_7*%
%TO.N,/TX{slash}1*%
X195288100Y-67716600D03*
%TO.P,J16,8,Pin_8*%
%TO.N,/RX{slash}0*%
X197828100Y-67716600D03*
%TD*%
D18*
%TO.P,MH3,*%
%TO.N,*%
X200368100Y-80416600D03*
%TD*%
D19*
%TO.P,J18,1,Pin_1*%
%TO.N,Earth*%
X187185500Y-81127800D03*
D20*
%TO.P,J18,2,Pin_2*%
%TO.N,+5V*%
X184645500Y-81127800D03*
%TO.P,J18,3,Pin_3*%
%TO.N,Vdrive*%
X182105500Y-81127800D03*
%TD*%
D16*
%TO.P,J17,1,Pin_1*%
%TO.N,Earth*%
X197015300Y-101879600D03*
D17*
%TO.P,J17,2,Pin_2*%
%TO.N,/A3*%
X194475300Y-101879600D03*
%TO.P,J17,3,Pin_3*%
%TO.N,Earth*%
X197015300Y-99339600D03*
%TO.P,J17,4,Pin_4*%
%TO.N,/A2*%
X194475300Y-99339600D03*
%TO.P,J17,5,Pin_5*%
%TO.N,Earth*%
X197015300Y-96799600D03*
%TO.P,J17,6,Pin_6*%
%TO.N,/A1*%
X194475300Y-96799600D03*
%TO.P,J17,7,Pin_7*%
%TO.N,Earth*%
X197015300Y-94259600D03*
%TO.P,J17,8,Pin_8*%
%TO.N,/A0*%
X194475300Y-94259600D03*
%TO.P,J17,9,Pin_9*%
%TO.N,Earth*%
X197015300Y-91719600D03*
%TO.P,J17,10,Pin_10*%
%TO.N,/4*%
X194475300Y-91719600D03*
%TO.P,J17,11,Pin_11*%
%TO.N,Earth*%
X197015300Y-89179600D03*
%TO.P,J17,12,Pin_12*%
%TO.N,/\u002A3*%
X194475300Y-89179600D03*
%TD*%
D16*
%TO.P,J13,1,Pin_1*%
%TO.N,unconnected-(J1-Pin_1-Pad1)*%
X162308100Y-110906600D03*
D17*
%TO.P,J13,2,Pin_2*%
%TO.N,/IOREF*%
X164848100Y-110906600D03*
%TO.P,J13,3,Pin_3*%
%TO.N,/~{RESET}*%
X167388100Y-110906600D03*
%TO.P,J13,4,Pin_4*%
%TO.N,unconnected-(J1-Pin_4-Pad4)*%
X169928100Y-110906600D03*
%TO.P,J13,5,Pin_5*%
%TO.N,+5V*%
X172468100Y-110906600D03*
%TO.P,J13,6,Pin_6*%
%TO.N,Earth*%
X175008100Y-110906600D03*
%TO.P,J13,7,Pin_7*%
X177548100Y-110906600D03*
%TO.P,J13,8,Pin_8*%
%TO.N,/Vin*%
X180088100Y-110906600D03*
%TD*%
D16*
%TO.P,J12,1,Pin_1*%
%TO.N,Net-(J12-Pin_1)*%
X146374500Y-102312600D03*
D17*
%TO.P,J12,2,Pin_2*%
%TO.N,Net-(J12-Pin_2)*%
X143834500Y-102312600D03*
%TO.P,J12,3,Pin_3*%
%TO.N,Net-(J12-Pin_3)*%
X141294500Y-102312600D03*
%TO.P,J12,4,Pin_4*%
%TO.N,Net-(J12-Pin_4)*%
X138754500Y-102312600D03*
%TD*%
D16*
%TO.P,J8,1,Pin_1*%
%TO.N,Vdrive*%
X145910500Y-85923400D03*
D17*
%TO.P,J8,2,Pin_2*%
%TO.N,Earth*%
X145910500Y-88463400D03*
%TD*%
D16*
%TO.P,J14,1,Pin_1*%
%TO.N,/A0*%
X185128100Y-110896600D03*
D17*
%TO.P,J14,2,Pin_2*%
%TO.N,/A1*%
X187668100Y-110896600D03*
%TO.P,J14,3,Pin_3*%
%TO.N,/A2*%
X190208100Y-110896600D03*
%TO.P,J14,4,Pin_4*%
%TO.N,/A3*%
X192748100Y-110896600D03*
%TO.P,J14,5,Pin_5*%
%TO.N,/SDA{slash}A4*%
X195288100Y-110896600D03*
%TO.P,J14,6,Pin_6*%
%TO.N,/SCL{slash}A5*%
X197828100Y-110896600D03*
%TD*%
D14*
%TO.P,R3,1*%
%TO.N,Earth*%
X146951900Y-75971600D03*
D15*
%TO.P,R3,2*%
%TO.N,Net-(J10-Pin_1)*%
X139331900Y-75971600D03*
%TD*%
D16*
%TO.P,J11,1,Pin_1*%
%TO.N,Earth*%
X201028500Y-89519800D03*
D17*
%TO.P,J11,2,Pin_2*%
%TO.N,+5V*%
X201028500Y-92059800D03*
%TO.P,J11,3,Pin_3*%
%TO.N,/SCL{slash}A5*%
X201028500Y-94599800D03*
%TO.P,J11,4,Pin_4*%
%TO.N,/SDA{slash}A4*%
X201028500Y-97139800D03*
%TD*%
D16*
%TO.P,J1,1,Pin_1*%
%TO.N,unconnected-(J1-Pin_1-Pad1)*%
X162268100Y-113436600D03*
D17*
%TO.P,J1,2,Pin_2*%
%TO.N,/IOREF*%
X164808100Y-113436600D03*
%TO.P,J1,3,Pin_3*%
%TO.N,/~{RESET}*%
X167348100Y-113436600D03*
%TO.P,J1,4,Pin_4*%
%TO.N,unconnected-(J1-Pin_4-Pad4)*%
X169888100Y-113436600D03*
%TO.P,J1,5,Pin_5*%
%TO.N,+5V*%
X172428100Y-113436600D03*
%TO.P,J1,6,Pin_6*%
%TO.N,Earth*%
X174968100Y-113436600D03*
%TO.P,J1,7,Pin_7*%
X177508100Y-113436600D03*
%TO.P,J1,8,Pin_8*%
%TO.N,/Vin*%
X180048100Y-113436600D03*
%TD*%
D18*
%TO.P,MH1,*%
%TO.N,*%
X149568100Y-65176600D03*
%TD*%
D21*
%TO.P,U1,1,QB*%
%TO.N,Net-(J19-Pin_2)*%
X155486300Y-84175800D03*
D14*
%TO.P,U1,2,QC*%
%TO.N,Net-(J19-Pin_3)*%
X158026300Y-84175800D03*
%TO.P,U1,3,QD*%
%TO.N,Net-(J19-Pin_4)*%
X160566300Y-84175800D03*
%TO.P,U1,4,QE*%
%TO.N,Net-(J12-Pin_1)*%
X163106300Y-84175800D03*
%TO.P,U1,5,QF*%
%TO.N,Net-(J12-Pin_2)*%
X165646300Y-84175800D03*
%TO.P,U1,6,QG*%
%TO.N,Net-(J12-Pin_3)*%
X168186300Y-84175800D03*
%TO.P,U1,7,QH*%
%TO.N,Net-(J12-Pin_4)*%
X170726300Y-84175800D03*
%TO.P,U1,8,GND*%
%TO.N,Earth*%
X173266300Y-84175800D03*
%TO.P,U1,9,QH'*%
%TO.N,unconnected-(U1-QH&apos;-Pad9)*%
X173266300Y-76555800D03*
%TO.P,U1,10,~{SRCLR}*%
%TO.N,+5V*%
X170726300Y-76555800D03*
%TO.P,U1,11,SRCLK*%
%TO.N,/\u002A9*%
X168186300Y-76555800D03*
%TO.P,U1,12,RCLK*%
%TO.N,/\u002A10*%
X165646300Y-76555800D03*
%TO.P,U1,13,~{OE}*%
%TO.N,Earth*%
X163106300Y-76555800D03*
%TO.P,U1,14,SER*%
%TO.N,/\u002A11*%
X160566300Y-76555800D03*
%TO.P,U1,15,QA*%
%TO.N,Net-(J19-Pin_1)*%
X158026300Y-76555800D03*
%TO.P,U1,16,VCC*%
%TO.N,+5V*%
X155486300Y-76555800D03*
%TD*%
D22*
%TO.P,J5,1,Pin_1*%
%TO.N,Vdrive*%
X138823900Y-82880400D03*
D23*
%TO.P,J5,2,Pin_2*%
%TO.N,Earth*%
X138823900Y-87960400D03*
%TD*%
D16*
%TO.P,J19,1,Pin_1*%
%TO.N,Net-(J19-Pin_1)*%
X161023500Y-91364000D03*
D17*
%TO.P,J19,2,Pin_2*%
%TO.N,Net-(J19-Pin_2)*%
X161023500Y-93904000D03*
%TO.P,J19,3,Pin_3*%
%TO.N,Net-(J19-Pin_3)*%
X161023500Y-96444000D03*
%TO.P,J19,4,Pin_4*%
%TO.N,Net-(J19-Pin_4)*%
X161023500Y-98984000D03*
%TD*%
D16*
%TO.P,J4,1,Pin_1*%
%TO.N,/7*%
X180048100Y-65176600D03*
D17*
%TO.P,J4,2,Pin_2*%
%TO.N,/\u002A6*%
X182588100Y-65176600D03*
%TO.P,J4,3,Pin_3*%
%TO.N,/\u002A5*%
X185128100Y-65176600D03*
%TO.P,J4,4,Pin_4*%
%TO.N,/4*%
X187668100Y-65176600D03*
%TO.P,J4,5,Pin_5*%
%TO.N,/\u002A3*%
X190208100Y-65176600D03*
%TO.P,J4,6,Pin_6*%
%TO.N,/2*%
X192748100Y-65176600D03*
%TO.P,J4,7,Pin_7*%
%TO.N,/TX{slash}1*%
X195288100Y-65176600D03*
%TO.P,J4,8,Pin_8*%
%TO.N,/RX{slash}0*%
X197828100Y-65176600D03*
%TD*%
D16*
%TO.P,J10,1,Pin_1*%
%TO.N,Net-(J10-Pin_1)*%
X136751100Y-67062400D03*
D17*
%TO.P,J10,2,Pin_2*%
%TO.N,/12*%
X139291100Y-67062400D03*
%TO.P,J10,3,Pin_3*%
%TO.N,Earth*%
X141831100Y-67062400D03*
%TO.P,J10,4,Pin_4*%
%TO.N,+5V*%
X144371100Y-67062400D03*
%TD*%
D16*
%TO.P,J20,1,Pin_1*%
%TO.N,/8*%
X181216500Y-75514400D03*
D17*
%TO.P,J20,2,Pin_2*%
%TO.N,/7*%
X183756500Y-75514400D03*
%TO.P,J20,3,Pin_3*%
%TO.N,/\u002A6*%
X186296500Y-75514400D03*
%TO.P,J20,4,Pin_4*%
%TO.N,/\u002A5*%
X188836500Y-75514400D03*
%TD*%
D16*
%TO.P,J3,1,Pin_1*%
%TO.N,/A0*%
X185128100Y-113436600D03*
D17*
%TO.P,J3,2,Pin_2*%
%TO.N,/A1*%
X187668100Y-113436600D03*
%TO.P,J3,3,Pin_3*%
%TO.N,/A2*%
X190208100Y-113436600D03*
%TO.P,J3,4,Pin_4*%
%TO.N,/A3*%
X192748100Y-113436600D03*
%TO.P,J3,5,Pin_5*%
%TO.N,/SDA{slash}A4*%
X195288100Y-113436600D03*
%TO.P,J3,6,Pin_6*%
%TO.N,/SCL{slash}A5*%
X197828100Y-113436600D03*
%TD*%
D18*
%TO.P,MH2,*%
%TO.N,*%
X148298100Y-113436600D03*
%TD*%
%TO.P,MH4,*%
%TO.N,*%
X200368100Y-108356600D03*
%TD*%
D19*
%TO.P,J18,1,Pin_1*%
%TO.N,Earth*%
X145300900Y-97282200D03*
D20*
%TO.P,J18,2,Pin_2*%
%TO.N,+5V*%
X142760900Y-97282200D03*
%TO.P,J18,3,Pin_3*%
%TO.N,Vdrive*%
X140220900Y-97282200D03*
%TD*%
D24*
%TO.N,+5V*%
X144731900Y-94869200D03*
X149212500Y-92659400D03*
X149237900Y-78232200D03*
X151752500Y-94843800D03*
X194780100Y-107950200D03*
X182486500Y-107950200D03*
%TO.N,Earth*%
X194754700Y-105334000D03*
X183426300Y-105334000D03*
X151828700Y-88443000D03*
X171031100Y-81559600D03*
X163106300Y-78537000D03*
X173266300Y-88468400D03*
%TO.N,Net-(J19-Pin_1)*%
X151854100Y-85547400D03*
X151854100Y-74904800D03*
%TD*%
D25*
%TO.N,Vdrive*%
X136322000Y-85382300D02*
X136322000Y-93383300D01*
X136322000Y-93383300D02*
X140220900Y-97282200D01*
X138823900Y-82880400D02*
X136322000Y-85382300D01*
D26*
%TO.N,+5V*%
X161361400Y-115621000D02*
X161640800Y-115341600D01*
X138011100Y-115621000D02*
X161361400Y-115621000D01*
X134975800Y-81292900D02*
X134975800Y-112585700D01*
X149237900Y-78181400D02*
X138087300Y-78181400D01*
X134975800Y-112585700D02*
X138011100Y-115621000D01*
X150863500Y-76555800D02*
X149237900Y-78181400D01*
X138087300Y-78181400D02*
X134975800Y-81292900D01*
X142760900Y-96840200D02*
X144731900Y-94869200D01*
X142760900Y-97282200D02*
X142760900Y-96840200D01*
X161640800Y-115341600D02*
X164643000Y-115341600D01*
X158491200Y-112192000D02*
X161640800Y-115341600D01*
X164643000Y-115341600D02*
X171640700Y-115341600D01*
%TO.N,Net-(D1-K)*%
X154732000Y-110972800D02*
X155951200Y-112192000D01*
X145427900Y-110972800D02*
X154732000Y-110972800D01*
%TO.N,unconnected-(J1-Pin_1-Pad1)*%
X162268100Y-110946600D02*
X162308100Y-110906600D01*
X162268100Y-113436600D02*
X162268100Y-110946600D01*
%TO.N,+5V*%
X171640700Y-115341600D02*
X172428100Y-114554200D01*
X149237900Y-93345200D02*
X149237900Y-92659400D01*
X144371100Y-67062400D02*
X144371100Y-72882800D01*
X171488300Y-74854000D02*
X170726300Y-75616000D01*
X172428100Y-113436600D02*
X172428100Y-110946600D01*
X182486500Y-108001000D02*
X182486500Y-113843000D01*
X170726300Y-75616000D02*
X170726300Y-76555800D01*
X184645500Y-81127800D02*
X184645500Y-80137200D01*
X170726300Y-76555800D02*
X167144900Y-80137200D01*
X173367900Y-115316200D02*
X172428100Y-114376400D01*
X150736500Y-94843800D02*
X149237900Y-93345200D01*
X142913300Y-97129800D02*
X142760900Y-97282200D01*
X172428100Y-110946600D02*
X172468100Y-110906600D01*
X159067700Y-80137200D02*
X155486300Y-76555800D01*
X150863500Y-76555800D02*
X155486300Y-76555800D01*
X167144900Y-80137200D02*
X159067700Y-80137200D01*
X184645500Y-80137200D02*
X183426300Y-78918000D01*
D27*
X182511900Y-107975600D02*
X182537300Y-108001000D01*
D26*
X172428100Y-114554200D02*
X172428100Y-113436600D01*
D27*
X182511900Y-107975600D02*
X182486500Y-108001000D01*
D26*
X181013300Y-115316200D02*
X173367900Y-115316200D01*
X182486500Y-113843000D02*
X181013300Y-115316200D01*
X194805500Y-107950200D02*
X199275900Y-103479800D01*
X151803300Y-94843800D02*
X150736500Y-94843800D01*
X176085700Y-74854000D02*
X171488300Y-74854000D01*
X199275900Y-103479800D02*
X199275900Y-93812400D01*
X156094700Y-94835200D02*
X151718500Y-94835200D01*
X183426300Y-78918000D02*
X180149700Y-78918000D01*
X142760900Y-97724200D02*
X142760900Y-97282200D01*
X144371100Y-72882800D02*
X145631100Y-74142800D01*
X151718500Y-94835200D02*
X151676300Y-94793000D01*
X199275900Y-93812400D02*
X201028500Y-92059800D01*
X172428100Y-114376400D02*
X172428100Y-113436600D01*
X145631100Y-74142800D02*
X148450500Y-74142800D01*
X180149700Y-78918000D02*
X176085700Y-74854000D01*
X148450500Y-74142800D02*
X150863500Y-76555800D01*
%TO.N,/IOREF*%
X164808100Y-110946600D02*
X164848100Y-110906600D01*
X164808100Y-113436600D02*
X164808100Y-110946600D01*
%TO.N,/A0*%
X185128100Y-101955800D02*
X185128100Y-110896600D01*
X185128100Y-113436600D02*
X185128100Y-110896600D01*
X194475300Y-94259600D02*
X192824300Y-94259600D01*
X192824300Y-94259600D02*
X185128100Y-101955800D01*
%TO.N,/A1*%
X194475300Y-96799600D02*
X193205300Y-96799600D01*
X193205300Y-96799600D02*
X187668100Y-102336800D01*
X187668100Y-102336800D02*
X187668100Y-110896600D01*
X187668100Y-113436600D02*
X187668100Y-110896600D01*
%TO.N,/A2*%
X190208100Y-110896600D02*
X190208100Y-102616200D01*
X193484700Y-99339600D02*
X194475300Y-99339600D01*
X190208100Y-113436600D02*
X190208100Y-110896600D01*
X190208100Y-102616200D02*
X193484700Y-99339600D01*
%TO.N,/A3*%
X192748100Y-113436600D02*
X192748100Y-110896600D01*
X192748100Y-102641600D02*
X192748100Y-110896600D01*
X193510100Y-101879600D02*
X192748100Y-102641600D01*
X194475300Y-101879600D02*
X193510100Y-101879600D01*
%TO.N,/SDA{slash}A4*%
X155664100Y-67716600D02*
X155664100Y-65176600D01*
X201028500Y-103962400D02*
X201028500Y-97139800D01*
X195288100Y-113436600D02*
X195288100Y-110896600D01*
X195288100Y-110896600D02*
X195262700Y-110871200D01*
X195262700Y-109728200D02*
X201028500Y-103962400D01*
X195262700Y-110871200D02*
X195262700Y-109728200D01*
%TO.N,/SCL{slash}A5*%
X197828100Y-113436600D02*
X197828100Y-110896600D01*
X202429500Y-110037281D02*
X199030181Y-113436600D01*
D27*
X201028500Y-94599800D02*
X202429500Y-96000800D01*
X202429500Y-96000800D02*
X202429500Y-99568200D01*
D26*
X202429500Y-99568200D02*
X202429500Y-110037281D01*
D27*
X198666300Y-113436600D02*
X197828100Y-113436600D01*
D26*
X202429500Y-99259400D02*
X202429500Y-99568200D01*
X199030181Y-113436600D02*
X197828100Y-113436600D01*
X153124100Y-67716600D02*
X153124100Y-65176600D01*
%TO.N,/13*%
X163284100Y-68504000D02*
X159169300Y-72618800D01*
X163284100Y-67716600D02*
X163284100Y-65176600D01*
X159169300Y-72618800D02*
X146926500Y-72618800D01*
X163284100Y-67716600D02*
X163284100Y-68504000D01*
%TO.N,/12*%
X165824100Y-67716600D02*
X165824100Y-65176600D01*
X163665100Y-63017600D02*
X165824100Y-65176600D01*
X139291100Y-67062400D02*
X143335900Y-63017600D01*
X143335900Y-63017600D02*
X163665100Y-63017600D01*
%TO.N,/AREF*%
X158204100Y-67716600D02*
X158204100Y-65176600D01*
%TO.N,/8*%
X175984100Y-67716600D02*
X177254100Y-67716600D01*
X177254100Y-67716600D02*
X181216500Y-71679000D01*
X175984100Y-67716600D02*
X175984100Y-65176600D01*
X181216500Y-71679000D02*
X181216500Y-75514400D01*
%TO.N,/7*%
X180276700Y-67716600D02*
X183731100Y-71171000D01*
X183731100Y-71171000D02*
X183731100Y-75489000D01*
X180048100Y-67716600D02*
X180276700Y-67716600D01*
D27*
X180015700Y-64901400D02*
X179886700Y-65030400D01*
D26*
X183731100Y-75489000D02*
X183756500Y-75514400D01*
X180048100Y-67716600D02*
X180048100Y-65176600D01*
%TO.N,/4*%
X192468700Y-90652800D02*
X193535500Y-91719600D01*
X192468700Y-72517200D02*
X192468700Y-90652800D01*
X187668100Y-67716600D02*
X192468700Y-72517200D01*
X187668100Y-67716600D02*
X187668100Y-65176600D01*
X193535500Y-91719600D02*
X194475300Y-91719600D01*
%TO.N,/TX{slash}1*%
X195288100Y-67716600D02*
X195288100Y-65176600D01*
%TO.N,/RX{slash}0*%
X197828100Y-67716600D02*
X197828100Y-65176600D01*
%TO.N,Earth*%
X150482500Y-70180400D02*
X158712100Y-70180400D01*
X141831100Y-67062400D02*
X143666100Y-65227400D01*
D27*
X163131700Y-78562400D02*
X163106300Y-78537000D01*
D26*
X197015300Y-103073400D02*
X194754700Y-105334000D01*
D27*
X200688300Y-89179600D02*
X201028500Y-89519800D01*
D26*
X173266300Y-88392200D02*
X173317100Y-88443000D01*
X177508100Y-113436600D02*
X177508100Y-110946600D01*
X183578700Y-105334000D02*
X180580700Y-105334000D01*
D27*
X197015300Y-103429000D02*
X197015300Y-89179600D01*
D26*
X180580700Y-105334000D02*
X175008100Y-110906600D01*
X183604100Y-105359400D02*
X183578700Y-105334000D01*
X174968100Y-113436600D02*
X174968100Y-110946600D01*
D27*
X163106300Y-78537000D02*
X163106300Y-76555800D01*
D26*
X177508100Y-110946600D02*
X177548100Y-110906600D01*
X143666100Y-65227400D02*
X145529500Y-65227400D01*
D27*
X163131700Y-78994200D02*
X163131700Y-78562400D01*
X197015300Y-89179600D02*
X200688300Y-89179600D01*
D26*
X160744100Y-68148400D02*
X160744100Y-67716600D01*
X158712100Y-70180400D02*
X160744100Y-68148400D01*
X174968100Y-110946600D02*
X175008100Y-110906600D01*
X173266300Y-84175800D02*
X173266300Y-83667800D01*
X145529500Y-65227400D02*
X150482500Y-70180400D01*
X173266300Y-83667800D02*
X171081900Y-81483400D01*
X197015300Y-101879600D02*
X197015300Y-103073400D01*
X173266300Y-84175800D02*
X173266300Y-88392200D01*
X160744100Y-67716600D02*
X160744100Y-65176600D01*
D25*
%TO.N,Vdrive*%
X156094700Y-99137600D02*
X156094700Y-97375200D01*
X167475100Y-81940600D02*
X170047700Y-79368000D01*
X145910500Y-85923400D02*
X145910500Y-85344200D01*
X154876700Y-100355600D02*
X156094700Y-99137600D01*
X148450500Y-82804200D02*
X149314100Y-81940600D01*
X140220900Y-97282200D02*
X140220900Y-98882400D01*
X170047700Y-79368000D02*
X174148100Y-79368000D01*
X138900100Y-82804200D02*
X148450500Y-82804200D01*
X145910500Y-85344200D02*
X148450500Y-82804200D01*
X175907900Y-81127800D02*
X182105500Y-81127800D01*
X141694100Y-100355600D02*
X154876700Y-100355600D01*
X140220900Y-98882400D02*
X141694100Y-100355600D01*
X138823900Y-82880400D02*
X138900100Y-82804200D01*
X149314100Y-81940600D02*
X167475100Y-81940600D01*
X174148100Y-79368000D02*
X175907900Y-81127800D01*
D26*
%TO.N,Net-(J19-Pin_1)*%
X158026300Y-76555800D02*
X158026300Y-75438200D01*
X153047900Y-85547400D02*
X151854100Y-85547400D01*
X155968900Y-88468400D02*
X153047900Y-85547400D01*
X157467500Y-74879400D02*
X151828700Y-74879400D01*
X158026300Y-75438200D02*
X157467500Y-74879400D01*
X158127900Y-88468400D02*
X155968900Y-88468400D01*
X161023500Y-91364000D02*
X158127900Y-88468400D01*
%TO.N,Net-(J19-Pin_2)*%
X161023500Y-93904000D02*
X162877700Y-92049800D01*
X158407300Y-86004600D02*
X157315100Y-86004600D01*
X162877700Y-90475000D02*
X158407300Y-86004600D01*
X162877700Y-92049800D02*
X162877700Y-90475000D01*
X157315100Y-86004600D02*
X155486300Y-84175800D01*
%TO.N,Net-(J19-Pin_4)*%
X160667900Y-84175800D02*
X165544700Y-89052600D01*
X165544700Y-97536200D02*
X164096900Y-98984000D01*
X160566300Y-84175800D02*
X160667900Y-84175800D01*
X164096900Y-98984000D02*
X161023500Y-98984000D01*
X165544700Y-89052600D02*
X165544700Y-97536200D01*
%TO.N,Net-(J19-Pin_3)*%
X163106300Y-96444000D02*
X161023500Y-96444000D01*
X164122300Y-89774015D02*
X158524085Y-84175800D01*
X164122300Y-95428000D02*
X163106300Y-96444000D01*
X164122300Y-89774015D02*
X164122300Y-95428000D01*
X158524085Y-84175800D02*
X158026300Y-84175800D01*
%TO.N,unconnected-(J1-Pin_4-Pad4)*%
X169888100Y-110946600D02*
X169928100Y-110906600D01*
X169888100Y-113436600D02*
X169888100Y-110946600D01*
%TO.N,/Vin*%
X180088100Y-110906600D02*
X180088100Y-113396600D01*
X180088100Y-113396600D02*
X180048100Y-113436600D01*
%TO.N,/~{RESET}*%
X167348100Y-110946600D02*
X167388100Y-110906600D01*
X167348100Y-113436600D02*
X167348100Y-110946600D01*
%TO.N,/\u002A11*%
X168364100Y-68758000D02*
X168364100Y-67716600D01*
D27*
X168176700Y-67596400D02*
X168202700Y-67570400D01*
X167779900Y-67716600D02*
X168364100Y-67716600D01*
D26*
X168364100Y-67716600D02*
X168364100Y-65176600D01*
X160566300Y-76555800D02*
X168364100Y-68758000D01*
%TO.N,/\u002A10*%
X165646300Y-76555800D02*
X165646300Y-74930200D01*
X170904100Y-69672400D02*
X170904100Y-67716600D01*
X165646300Y-74930200D02*
X170904100Y-69672400D01*
X170904100Y-67716600D02*
X170904100Y-65176600D01*
%TO.N,/\u002A9*%
X168186300Y-76555800D02*
X168186300Y-75031800D01*
X173444100Y-69774000D02*
X173444100Y-67716600D01*
X168186300Y-75031800D02*
X173444100Y-69774000D01*
X173444100Y-67716600D02*
X173444100Y-65176600D01*
%TO.N,/2*%
X192748100Y-67716600D02*
X192748100Y-65176600D01*
%TO.N,/\u002A3*%
X190208100Y-67716600D02*
X194475300Y-71983800D01*
X194475300Y-71983800D02*
X194475300Y-89179600D01*
X190208100Y-67716600D02*
X190208100Y-65176600D01*
%TO.N,/\u002A6*%
X186296500Y-71425000D02*
X186296500Y-75514400D01*
X182588100Y-67716600D02*
X186296500Y-71425000D01*
X182588100Y-67716600D02*
X182588100Y-65176600D01*
%TO.N,/\u002A5*%
X185128100Y-67716600D02*
X188836500Y-71425000D01*
X188836500Y-71425000D02*
X188836500Y-75514400D01*
X185128100Y-67716600D02*
X185128100Y-65176600D01*
D27*
X184966700Y-64340400D02*
X184966700Y-65030400D01*
X184966700Y-64610400D02*
X184966700Y-65030400D01*
D26*
%TO.N,Net-(J10-Pin_1)*%
X136751100Y-70063400D02*
X139306500Y-72618800D01*
X139306500Y-75946200D02*
X139331900Y-75971600D01*
X139306500Y-72618800D02*
X139306500Y-75946200D01*
X136751100Y-67062400D02*
X136751100Y-70063400D01*
%TO.N,Net-(J12-Pin_2)*%
X143834500Y-103334200D02*
X143834500Y-102312600D01*
X168491100Y-99517400D02*
X163919100Y-104089400D01*
X168491100Y-87020600D02*
X168491100Y-99517400D01*
X163919100Y-104089400D02*
X144589700Y-104089400D01*
X165646300Y-84175800D02*
X168491100Y-87020600D01*
X144589700Y-104089400D02*
X143834500Y-103334200D01*
D27*
%TO.N,Net-(J12-Pin_1)*%
X163207900Y-84175800D02*
X163106300Y-84175800D01*
D26*
X163106300Y-84201200D02*
X163106300Y-84175800D01*
X146374500Y-102312600D02*
X163232100Y-102312600D01*
X163232100Y-102312600D02*
X167043300Y-98501400D01*
X167043300Y-98501400D02*
X167043300Y-88138200D01*
X167043300Y-88138200D02*
X163106300Y-84201200D01*
%TO.N,Net-(J12-Pin_4)*%
X142354500Y-107416800D02*
X138754500Y-103816800D01*
X171539100Y-84988600D02*
X171539100Y-101727200D01*
X165849500Y-107416800D02*
X142354500Y-107416800D01*
X138754500Y-103816800D02*
X138754500Y-102312600D01*
X170726300Y-84175800D02*
X171539100Y-84988600D01*
X171539100Y-101727200D02*
X165849500Y-107416800D01*
%TO.N,Net-(J12-Pin_3)*%
X141294500Y-103562800D02*
X141294500Y-102312600D01*
X164884300Y-105740400D02*
X143472100Y-105740400D01*
X170065900Y-86055400D02*
X170065900Y-100558800D01*
X168186300Y-84175800D02*
X170065900Y-86055400D01*
X170065900Y-100558800D02*
X164884300Y-105740400D01*
X143472100Y-105740400D02*
X141294500Y-103562800D01*
%TD*%
%TA.AperFunction,Conductor*%
%TO.N,Earth*%
G36*
X190392203Y-72351044D02*
G01*
X190398681Y-72357076D01*
X191081881Y-73040276D01*
X191115366Y-73101599D01*
X191118200Y-73127957D01*
X191118200Y-90759086D01*
X191140422Y-90899394D01*
X191151454Y-90969043D01*
X191201640Y-91123500D01*
X191217144Y-91171214D01*
X191313651Y-91360620D01*
X191438589Y-91532584D01*
X191438593Y-91532588D01*
X191438596Y-91532592D01*
X191588908Y-91682904D01*
X191593238Y-91687234D01*
X191593249Y-91687244D01*
X192505393Y-92599388D01*
X192505396Y-92599392D01*
X192629747Y-92723743D01*
X192642265Y-92746669D01*
X192663230Y-92785063D01*
X192663229Y-92785063D01*
X192663230Y-92785064D01*
X192658246Y-92854756D01*
X192640320Y-92878701D01*
X192616375Y-92910689D01*
X192561463Y-92933895D01*
X192508059Y-92942353D01*
X192305885Y-93008044D01*
X192116479Y-93104551D01*
X191944513Y-93229490D01*
X184097990Y-101076013D01*
X183973051Y-101247979D01*
X183876544Y-101437385D01*
X183810853Y-101639560D01*
X183777600Y-101849513D01*
X183777600Y-106482992D01*
X183757915Y-106550031D01*
X183705111Y-106595786D01*
X183635953Y-106605730D01*
X183578114Y-106581368D01*
X183461112Y-106491589D01*
X183262388Y-106376856D01*
X183262376Y-106376850D01*
X183050387Y-106289042D01*
X183005699Y-106277068D01*
X182828738Y-106229652D01*
X182790715Y-106224646D01*
X182601241Y-106199700D01*
X182601234Y-106199700D01*
X182371766Y-106199700D01*
X182371758Y-106199700D01*
X182155215Y-106228209D01*
X182144262Y-106229652D01*
X182050576Y-106254754D01*
X181922612Y-106289042D01*
X181710623Y-106376850D01*
X181710609Y-106376857D01*
X181511882Y-106491592D01*
X181329838Y-106631281D01*
X181167581Y-106793538D01*
X181027892Y-106975582D01*
X180913157Y-107174309D01*
X180913150Y-107174323D01*
X180825342Y-107386312D01*
X180765953Y-107607959D01*
X180765951Y-107607970D01*
X180736000Y-107835458D01*
X180736000Y-108064941D01*
X180760946Y-108254415D01*
X180765952Y-108292438D01*
X180807341Y-108446904D01*
X180825342Y-108514087D01*
X180913150Y-108726076D01*
X180913157Y-108726090D01*
X181027889Y-108924812D01*
X181110376Y-109032310D01*
X181118619Y-109053632D01*
X181130977Y-109072862D01*
X181133892Y-109093141D01*
X181135570Y-109097480D01*
X181136000Y-109107797D01*
X181136000Y-109160057D01*
X181116315Y-109227096D01*
X181063511Y-109272851D01*
X180994353Y-109282795D01*
X180950001Y-109267445D01*
X180929278Y-109255480D01*
X180908312Y-109243376D01*
X180869009Y-109227096D01*
X180684204Y-109150547D01*
X180486157Y-109097480D01*
X180449889Y-109087762D01*
X180449888Y-109087761D01*
X180449885Y-109087761D01*
X180209389Y-109056100D01*
X180209388Y-109056100D01*
X179966812Y-109056100D01*
X179966811Y-109056100D01*
X179726314Y-109087761D01*
X179491995Y-109150547D01*
X179267894Y-109243373D01*
X179267885Y-109243377D01*
X179057806Y-109364667D01*
X178865363Y-109512333D01*
X178865356Y-109512339D01*
X178693839Y-109683856D01*
X178693833Y-109683863D01*
X178546167Y-109876306D01*
X178546164Y-109876310D01*
X178546164Y-109876311D01*
X178544506Y-109879183D01*
X178424877Y-110086385D01*
X178424873Y-110086394D01*
X178332047Y-110310495D01*
X178269261Y-110544814D01*
X178237600Y-110785311D01*
X178237600Y-111027888D01*
X178269261Y-111268385D01*
X178332047Y-111502704D01*
X178405302Y-111679556D01*
X178424876Y-111726812D01*
X178546164Y-111936889D01*
X178546166Y-111936892D01*
X178546167Y-111936893D01*
X178648340Y-112070049D01*
X178673534Y-112135218D01*
X178659495Y-112203663D01*
X178648340Y-112221021D01*
X178506167Y-112406306D01*
X178384877Y-112616385D01*
X178384873Y-112616394D01*
X178292047Y-112840495D01*
X178229261Y-113074814D01*
X178197600Y-113315311D01*
X178197600Y-113557888D01*
X178229262Y-113798389D01*
X178232268Y-113809608D01*
X178230605Y-113879458D01*
X178191441Y-113937320D01*
X178127213Y-113964823D01*
X178112493Y-113965700D01*
X174363707Y-113965700D01*
X174296668Y-113946015D01*
X174250913Y-113893211D01*
X174240969Y-113824053D01*
X174243932Y-113809608D01*
X174245673Y-113803109D01*
X174246938Y-113798389D01*
X174278600Y-113557888D01*
X174278600Y-113315312D01*
X174246938Y-113074811D01*
X174184154Y-112840500D01*
X174091324Y-112616388D01*
X173970036Y-112406311D01*
X173932849Y-112357848D01*
X173867859Y-112273150D01*
X173842665Y-112207981D01*
X173856704Y-112139536D01*
X173867859Y-112122178D01*
X173907859Y-112070049D01*
X174010036Y-111936889D01*
X174131324Y-111726812D01*
X174224154Y-111502700D01*
X174286938Y-111268389D01*
X174318600Y-111027888D01*
X174318600Y-110785312D01*
X174286938Y-110544811D01*
X174224154Y-110310500D01*
X174131324Y-110086388D01*
X174010036Y-109876311D01*
X173891049Y-109721244D01*
X173862366Y-109683863D01*
X173862360Y-109683856D01*
X173690843Y-109512339D01*
X173690836Y-109512333D01*
X173498393Y-109364667D01*
X173498392Y-109364666D01*
X173498389Y-109364664D01*
X173288312Y-109243376D01*
X173249009Y-109227096D01*
X173064204Y-109150547D01*
X172866157Y-109097480D01*
X172829889Y-109087762D01*
X172829888Y-109087761D01*
X172829885Y-109087761D01*
X172589389Y-109056100D01*
X172589388Y-109056100D01*
X172346812Y-109056100D01*
X172346811Y-109056100D01*
X172106314Y-109087761D01*
X171871995Y-109150547D01*
X171647894Y-109243373D01*
X171647885Y-109243377D01*
X171437806Y-109364667D01*
X171273586Y-109490677D01*
X171208417Y-109515871D01*
X171139972Y-109501832D01*
X171122614Y-109490677D01*
X170958393Y-109364667D01*
X170958392Y-109364666D01*
X170958389Y-109364664D01*
X170748312Y-109243376D01*
X170709009Y-109227096D01*
X170524204Y-109150547D01*
X170326157Y-109097480D01*
X170289889Y-109087762D01*
X170289888Y-109087761D01*
X170289885Y-109087761D01*
X170049389Y-109056100D01*
X170049388Y-109056100D01*
X169806812Y-109056100D01*
X169806811Y-109056100D01*
X169566314Y-109087761D01*
X169331995Y-109150547D01*
X169107894Y-109243373D01*
X169107885Y-109243377D01*
X168897806Y-109364667D01*
X168733586Y-109490677D01*
X168668417Y-109515871D01*
X168599972Y-109501832D01*
X168582614Y-109490677D01*
X168418393Y-109364667D01*
X168418392Y-109364666D01*
X168418389Y-109364664D01*
X168208312Y-109243376D01*
X168169009Y-109227096D01*
X167984204Y-109150547D01*
X167786157Y-109097480D01*
X167749889Y-109087762D01*
X167749888Y-109087761D01*
X167749885Y-109087761D01*
X167509389Y-109056100D01*
X167509388Y-109056100D01*
X167266812Y-109056100D01*
X167266811Y-109056100D01*
X167026314Y-109087761D01*
X166791995Y-109150547D01*
X166567894Y-109243373D01*
X166567885Y-109243377D01*
X166357806Y-109364667D01*
X166193586Y-109490677D01*
X166128417Y-109515871D01*
X166059972Y-109501832D01*
X166042614Y-109490677D01*
X165878393Y-109364667D01*
X165878392Y-109364666D01*
X165878389Y-109364664D01*
X165668312Y-109243376D01*
X165629009Y-109227096D01*
X165444204Y-109150547D01*
X165246157Y-109097480D01*
X165209889Y-109087762D01*
X165209888Y-109087761D01*
X165209885Y-109087761D01*
X164969389Y-109056100D01*
X164969388Y-109056100D01*
X164726812Y-109056100D01*
X164726811Y-109056100D01*
X164486314Y-109087761D01*
X164251995Y-109150547D01*
X164027894Y-109243373D01*
X164027889Y-109243375D01*
X163935740Y-109296577D01*
X163867840Y-109313049D01*
X163801813Y-109290196D01*
X163795381Y-109285291D01*
X163711512Y-109216905D01*
X163711508Y-109216903D01*
X163711507Y-109216902D01*
X163531149Y-109122691D01*
X163531148Y-109122690D01*
X163531145Y-109122689D01*
X163413929Y-109089150D01*
X163335518Y-109066714D01*
X163335515Y-109066713D01*
X163335513Y-109066713D01*
X163269202Y-109060817D01*
X163216137Y-109056100D01*
X163216132Y-109056100D01*
X161400071Y-109056100D01*
X161400065Y-109056100D01*
X161400064Y-109056101D01*
X161388416Y-109057136D01*
X161280684Y-109066713D01*
X161085054Y-109122689D01*
X161031725Y-109150546D01*
X160904693Y-109216902D01*
X160904691Y-109216903D01*
X160904690Y-109216904D01*
X160746990Y-109345490D01*
X160618404Y-109503190D01*
X160524189Y-109683554D01*
X160479432Y-109839976D01*
X160469036Y-109876311D01*
X160468214Y-109879183D01*
X160468213Y-109879186D01*
X160457600Y-109998566D01*
X160457600Y-111349675D01*
X160437915Y-111416714D01*
X160385111Y-111462469D01*
X160315953Y-111472413D01*
X160252397Y-111443388D01*
X160219039Y-111397128D01*
X160199364Y-111349627D01*
X160185038Y-111324814D01*
X160074799Y-111133873D01*
X159923139Y-110936225D01*
X159923133Y-110936218D01*
X159746981Y-110760066D01*
X159746974Y-110760060D01*
X159549326Y-110608400D01*
X159333576Y-110483837D01*
X159333561Y-110483830D01*
X159103407Y-110388498D01*
X158989919Y-110358089D01*
X158862765Y-110324018D01*
X158862764Y-110324017D01*
X158862761Y-110324017D01*
X158615775Y-110291501D01*
X158615770Y-110291500D01*
X158615765Y-110291500D01*
X158366635Y-110291500D01*
X158366629Y-110291500D01*
X158366624Y-110291501D01*
X158119638Y-110324017D01*
X157878992Y-110388498D01*
X157648838Y-110483830D01*
X157648821Y-110483839D01*
X157602558Y-110510548D01*
X157534658Y-110527019D01*
X157468631Y-110504166D01*
X157462199Y-110499262D01*
X157404609Y-110452304D01*
X157404610Y-110452304D01*
X157404607Y-110452302D01*
X157224249Y-110358091D01*
X157224248Y-110358090D01*
X157224245Y-110358089D01*
X157105166Y-110324017D01*
X157028618Y-110302114D01*
X157028615Y-110302113D01*
X157028613Y-110302113D01*
X156955831Y-110295642D01*
X156909237Y-110291500D01*
X156909233Y-110291500D01*
X156011957Y-110291500D01*
X155982516Y-110282855D01*
X155952530Y-110276332D01*
X155947514Y-110272577D01*
X155944918Y-110271815D01*
X155924276Y-110255181D01*
X155766444Y-110097349D01*
X155766435Y-110097339D01*
X155755481Y-110086385D01*
X155611792Y-109942696D01*
X155611788Y-109942693D01*
X155611784Y-109942689D01*
X155439820Y-109817751D01*
X155250414Y-109721244D01*
X155250413Y-109721243D01*
X155250412Y-109721243D01*
X155048243Y-109655554D01*
X155048241Y-109655553D01*
X155048240Y-109655553D01*
X154886957Y-109630008D01*
X154838287Y-109622300D01*
X154838286Y-109622300D01*
X146667631Y-109622300D01*
X146600592Y-109602615D01*
X146592145Y-109596676D01*
X146430354Y-109472530D01*
X146430353Y-109472529D01*
X146430350Y-109472527D01*
X146348857Y-109425477D01*
X146225956Y-109354519D01*
X146225945Y-109354514D01*
X146007893Y-109264194D01*
X145869442Y-109227096D01*
X145779914Y-109203107D01*
X145779913Y-109203106D01*
X145779910Y-109203106D01*
X145545920Y-109172301D01*
X145545917Y-109172300D01*
X145545911Y-109172300D01*
X145309889Y-109172300D01*
X145309883Y-109172300D01*
X145309879Y-109172301D01*
X145075889Y-109203106D01*
X144847906Y-109264194D01*
X144629854Y-109354514D01*
X144629843Y-109354519D01*
X144425445Y-109472530D01*
X144238202Y-109616206D01*
X144238195Y-109616212D01*
X144071312Y-109783095D01*
X144071306Y-109783102D01*
X143927630Y-109970345D01*
X143809619Y-110174743D01*
X143809614Y-110174754D01*
X143719294Y-110392806D01*
X143658206Y-110620789D01*
X143627401Y-110854779D01*
X143627400Y-110854795D01*
X143627400Y-111090804D01*
X143627401Y-111090820D01*
X143657161Y-111316876D01*
X143658207Y-111324814D01*
X143697756Y-111472413D01*
X143719294Y-111552793D01*
X143809614Y-111770845D01*
X143809619Y-111770856D01*
X143834896Y-111814636D01*
X143927627Y-111975250D01*
X143927629Y-111975253D01*
X143927630Y-111975254D01*
X144071306Y-112162497D01*
X144071312Y-112162504D01*
X144238195Y-112329387D01*
X144238202Y-112329393D01*
X144324731Y-112395789D01*
X144425450Y-112473073D01*
X144556818Y-112548918D01*
X144629843Y-112591080D01*
X144629848Y-112591082D01*
X144629851Y-112591084D01*
X144847907Y-112681406D01*
X145075886Y-112742493D01*
X145309889Y-112773300D01*
X145309896Y-112773300D01*
X145545904Y-112773300D01*
X145545911Y-112773300D01*
X145612689Y-112764508D01*
X145681723Y-112775273D01*
X145733979Y-112821653D01*
X145752865Y-112888921D01*
X145749765Y-112915039D01*
X145730302Y-113000310D01*
X145730299Y-113000328D01*
X145697600Y-113290552D01*
X145697600Y-113582647D01*
X145730299Y-113872871D01*
X145730301Y-113872883D01*
X145730302Y-113872886D01*
X145731802Y-113879458D01*
X145786455Y-114118907D01*
X145782182Y-114188646D01*
X145740883Y-114245004D01*
X145675671Y-114270087D01*
X145665564Y-114270500D01*
X138621858Y-114270500D01*
X138554819Y-114250815D01*
X138534177Y-114234181D01*
X136362619Y-112062623D01*
X136329134Y-112001300D01*
X136326300Y-111974942D01*
X136326300Y-95808989D01*
X136345985Y-95741950D01*
X136398789Y-95696195D01*
X136467947Y-95686251D01*
X136531503Y-95715276D01*
X136537981Y-95721308D01*
X138323248Y-97506575D01*
X138356733Y-97567898D01*
X138358506Y-97578070D01*
X138364001Y-97619805D01*
X138387319Y-97796922D01*
X138396154Y-97829893D01*
X138450610Y-98033130D01*
X138504731Y-98163788D01*
X138544194Y-98259060D01*
X138666465Y-98470840D01*
X138666470Y-98470846D01*
X138666471Y-98470848D01*
X138694776Y-98507736D01*
X138719970Y-98572905D01*
X138720400Y-98583222D01*
X138720400Y-99000497D01*
X138757346Y-99233768D01*
X138830333Y-99458396D01*
X138937557Y-99668834D01*
X139076384Y-99859911D01*
X139630910Y-100414437D01*
X139664395Y-100475760D01*
X139659411Y-100545452D01*
X139617539Y-100601385D01*
X139552075Y-100625802D01*
X139495777Y-100616679D01*
X139350607Y-100556548D01*
X139331663Y-100551472D01*
X139116289Y-100493762D01*
X139116288Y-100493761D01*
X139116285Y-100493761D01*
X138875789Y-100462100D01*
X138875788Y-100462100D01*
X138633212Y-100462100D01*
X138633211Y-100462100D01*
X138392714Y-100493761D01*
X138158395Y-100556547D01*
X137934294Y-100649373D01*
X137934285Y-100649377D01*
X137724206Y-100770667D01*
X137531763Y-100918333D01*
X137531756Y-100918339D01*
X137360239Y-101089856D01*
X137360233Y-101089863D01*
X137212567Y-101282306D01*
X137212564Y-101282310D01*
X137212564Y-101282311D01*
X137211878Y-101283500D01*
X137091277Y-101492385D01*
X137091273Y-101492394D01*
X136998447Y-101716495D01*
X136935661Y-101950814D01*
X136904000Y-102191311D01*
X136904000Y-102433888D01*
X136935661Y-102674385D01*
X136998447Y-102908704D01*
X137078652Y-103102336D01*
X137091276Y-103132812D01*
X137212564Y-103342889D01*
X137212566Y-103342892D01*
X137212567Y-103342893D01*
X137360233Y-103535336D01*
X137367677Y-103542780D01*
X137401165Y-103604101D01*
X137404000Y-103630465D01*
X137404000Y-103923086D01*
X137437253Y-104133039D01*
X137502944Y-104335214D01*
X137599451Y-104524620D01*
X137724389Y-104696584D01*
X137724393Y-104696588D01*
X137724396Y-104696592D01*
X137874708Y-104846904D01*
X137879038Y-104851234D01*
X137879049Y-104851244D01*
X141321270Y-108293465D01*
X141321284Y-108293480D01*
X141324395Y-108296591D01*
X141324396Y-108296592D01*
X141474708Y-108446904D01*
X141474711Y-108446906D01*
X141474715Y-108446910D01*
X141646679Y-108571848D01*
X141646681Y-108571849D01*
X141646684Y-108571851D01*
X141836088Y-108668357D01*
X142038257Y-108734046D01*
X142248213Y-108767301D01*
X142248214Y-108767301D01*
X142465898Y-108767301D01*
X142465922Y-108767300D01*
X165955786Y-108767300D01*
X165955787Y-108767300D01*
X166165743Y-108734046D01*
X166367912Y-108668357D01*
X166557316Y-108571851D01*
X166636822Y-108514087D01*
X166729286Y-108446909D01*
X166729288Y-108446906D01*
X166729292Y-108446904D01*
X166879604Y-108296592D01*
X166879605Y-108296590D01*
X166886665Y-108289530D01*
X166886670Y-108289523D01*
X172569204Y-102606992D01*
X172569206Y-102606988D01*
X172569209Y-102606986D01*
X172694148Y-102435020D01*
X172694147Y-102435020D01*
X172694151Y-102435016D01*
X172790657Y-102245612D01*
X172856346Y-102043443D01*
X172889600Y-101833487D01*
X172889600Y-101620914D01*
X172889600Y-85100022D01*
X172889601Y-85099997D01*
X172889601Y-84882315D01*
X172872051Y-84771512D01*
X172856346Y-84672357D01*
X172790657Y-84470188D01*
X172694151Y-84280784D01*
X172591496Y-84139491D01*
X172569204Y-84108808D01*
X172553392Y-84092996D01*
X172549398Y-84088091D01*
X172538216Y-84061481D01*
X172524385Y-84036151D01*
X172522612Y-84025978D01*
X172495993Y-83823786D01*
X172434906Y-83595807D01*
X172344584Y-83377751D01*
X172344582Y-83377748D01*
X172344580Y-83377743D01*
X172302418Y-83304718D01*
X172226573Y-83173350D01*
X172130457Y-83048089D01*
X172082893Y-82986102D01*
X172082887Y-82986095D01*
X171916004Y-82819212D01*
X171915997Y-82819206D01*
X171728754Y-82675530D01*
X171728753Y-82675529D01*
X171728750Y-82675527D01*
X171646950Y-82628300D01*
X171524356Y-82557519D01*
X171524345Y-82557514D01*
X171306293Y-82467194D01*
X171252432Y-82452762D01*
X171078314Y-82406107D01*
X171078313Y-82406106D01*
X171078310Y-82406106D01*
X170844320Y-82375301D01*
X170844317Y-82375300D01*
X170844311Y-82375300D01*
X170608289Y-82375300D01*
X170608283Y-82375300D01*
X170608279Y-82375301D01*
X170374289Y-82406106D01*
X170146306Y-82467194D01*
X169928254Y-82557514D01*
X169928243Y-82557519D01*
X169723845Y-82675530D01*
X169533380Y-82821679D01*
X169532491Y-82820520D01*
X169474638Y-82847337D01*
X169405424Y-82837783D01*
X169379598Y-82821185D01*
X169379220Y-82821679D01*
X169188754Y-82675530D01*
X169188753Y-82675529D01*
X169188750Y-82675527D01*
X169121673Y-82636800D01*
X169073458Y-82586234D01*
X169060236Y-82517627D01*
X169086204Y-82452762D01*
X169095984Y-82441742D01*
X170632909Y-80904819D01*
X170694232Y-80871334D01*
X170720590Y-80868500D01*
X173475211Y-80868500D01*
X173542250Y-80888185D01*
X173562892Y-80904819D01*
X174930390Y-82272317D01*
X175121466Y-82411143D01*
X175181503Y-82441733D01*
X175331903Y-82518366D01*
X175331905Y-82518366D01*
X175331908Y-82518368D01*
X175400971Y-82540808D01*
X175556531Y-82591353D01*
X175789803Y-82628300D01*
X175789808Y-82628300D01*
X176025992Y-82628300D01*
X180766421Y-82628300D01*
X180833460Y-82647985D01*
X180854102Y-82664619D01*
X180872845Y-82683362D01*
X180872852Y-82683368D01*
X181066860Y-82832235D01*
X181278636Y-82954504D01*
X181278637Y-82954504D01*
X181278640Y-82954506D01*
X181504568Y-83048089D01*
X181740778Y-83111381D01*
X181983229Y-83143300D01*
X181983236Y-83143300D01*
X182227764Y-83143300D01*
X182227771Y-83143300D01*
X182470222Y-83111381D01*
X182706432Y-83048089D01*
X182932360Y-82954506D01*
X183144140Y-82832235D01*
X183300014Y-82712629D01*
X183365183Y-82687435D01*
X183433628Y-82701473D01*
X183450986Y-82712629D01*
X183606860Y-82832235D01*
X183818636Y-82954504D01*
X183818637Y-82954504D01*
X183818640Y-82954506D01*
X184044568Y-83048089D01*
X184280778Y-83111381D01*
X184523229Y-83143300D01*
X184523236Y-83143300D01*
X184767764Y-83143300D01*
X184767771Y-83143300D01*
X185010222Y-83111381D01*
X185246432Y-83048089D01*
X185472360Y-82954506D01*
X185684140Y-82832235D01*
X185878149Y-82683367D01*
X186051067Y-82510449D01*
X186199935Y-82316440D01*
X186322206Y-82104660D01*
X186415789Y-81878732D01*
X186479081Y-81642522D01*
X186511000Y-81400071D01*
X186511000Y-80855529D01*
X186479081Y-80613078D01*
X186415789Y-80376868D01*
X186322206Y-80150940D01*
X186199935Y-79939160D01*
X186051067Y-79745151D01*
X186051062Y-79745145D01*
X185882223Y-79576306D01*
X185859419Y-79544920D01*
X185852785Y-79531900D01*
X185800551Y-79429384D01*
X185771110Y-79388861D01*
X185675609Y-79257413D01*
X185525291Y-79107095D01*
X185099231Y-78681035D01*
X184460743Y-78042548D01*
X184460735Y-78042539D01*
X184395627Y-77977431D01*
X184306092Y-77887896D01*
X184306088Y-77887893D01*
X184306084Y-77887889D01*
X184134120Y-77762951D01*
X183944714Y-77666444D01*
X183944713Y-77666443D01*
X183944712Y-77666443D01*
X183761244Y-77606830D01*
X183703569Y-77567393D01*
X183676371Y-77503035D01*
X183688286Y-77434188D01*
X183735530Y-77382713D01*
X183799563Y-77364900D01*
X183877789Y-77364900D01*
X183925888Y-77358567D01*
X184118289Y-77333238D01*
X184352600Y-77270454D01*
X184576712Y-77177624D01*
X184786789Y-77056336D01*
X184951014Y-76930322D01*
X185016183Y-76905128D01*
X185084628Y-76919166D01*
X185101986Y-76930322D01*
X185266211Y-77056336D01*
X185476288Y-77177624D01*
X185700400Y-77270454D01*
X185934711Y-77333238D01*
X186115086Y-77356984D01*
X186175211Y-77364900D01*
X186175212Y-77364900D01*
X186417789Y-77364900D01*
X186465888Y-77358567D01*
X186658289Y-77333238D01*
X186892600Y-77270454D01*
X187116712Y-77177624D01*
X187326789Y-77056336D01*
X187491014Y-76930322D01*
X187556183Y-76905128D01*
X187624628Y-76919166D01*
X187641986Y-76930322D01*
X187806211Y-77056336D01*
X188016288Y-77177624D01*
X188240400Y-77270454D01*
X188474711Y-77333238D01*
X188655086Y-77356984D01*
X188715211Y-77364900D01*
X188715212Y-77364900D01*
X188957789Y-77364900D01*
X189005888Y-77358567D01*
X189198289Y-77333238D01*
X189432600Y-77270454D01*
X189656712Y-77177624D01*
X189866789Y-77056336D01*
X190059238Y-76908665D01*
X190230765Y-76737138D01*
X190378436Y-76544689D01*
X190499724Y-76334612D01*
X190592554Y-76110500D01*
X190655338Y-75876189D01*
X190687000Y-75635688D01*
X190687000Y-75393112D01*
X190655338Y-75152611D01*
X190592554Y-74918300D01*
X190499724Y-74694188D01*
X190378436Y-74484111D01*
X190230765Y-74291662D01*
X190230760Y-74291656D01*
X190223319Y-74284215D01*
X190189834Y-74222892D01*
X190187000Y-74196534D01*
X190187000Y-72444757D01*
X190206685Y-72377718D01*
X190259489Y-72331963D01*
X190328647Y-72322019D01*
X190392203Y-72351044D01*
G37*
%TD.AperFunction*%
%TA.AperFunction,Conductor*%
G36*
X199778992Y-64514805D02*
G01*
X199812914Y-64539084D01*
X199853927Y-64580495D01*
X200408659Y-65140613D01*
X200441847Y-65202098D01*
X200444553Y-65227250D01*
X200444998Y-65316200D01*
X200445000Y-65316820D01*
X200445000Y-75260208D01*
X200444924Y-75275031D01*
X200445000Y-75275217D01*
X200445000Y-75275418D01*
X200450564Y-75288851D01*
X200450807Y-75289441D01*
X200456278Y-75302844D01*
X200456398Y-75303024D01*
X200456489Y-75303162D01*
X200466786Y-75313459D01*
X200467235Y-75313910D01*
X202795763Y-77666444D01*
X202872930Y-77744406D01*
X202906100Y-77805900D01*
X202908800Y-77831636D01*
X202908800Y-79155595D01*
X202889115Y-79222634D01*
X202836311Y-79268389D01*
X202767153Y-79278333D01*
X202703597Y-79249308D01*
X202673080Y-79209398D01*
X202665973Y-79194641D01*
X202647705Y-79156707D01*
X202492308Y-78909394D01*
X202310198Y-78681035D01*
X202103665Y-78474502D01*
X201875306Y-78292392D01*
X201687020Y-78174084D01*
X201627990Y-78136993D01*
X201364838Y-78010265D01*
X201089146Y-77913797D01*
X201089144Y-77913796D01*
X200829201Y-77854466D01*
X200804386Y-77848802D01*
X200804383Y-77848801D01*
X200804371Y-77848799D01*
X200514147Y-77816100D01*
X200514141Y-77816100D01*
X200222059Y-77816100D01*
X200222052Y-77816100D01*
X199931828Y-77848799D01*
X199931814Y-77848802D01*
X199647055Y-77913796D01*
X199647053Y-77913797D01*
X199371361Y-78010265D01*
X199108209Y-78136993D01*
X198860895Y-78292391D01*
X198632535Y-78474501D01*
X198426001Y-78681035D01*
X198243891Y-78909395D01*
X198088493Y-79156709D01*
X197961765Y-79419861D01*
X197865297Y-79695553D01*
X197865296Y-79695555D01*
X197800302Y-79980314D01*
X197800299Y-79980328D01*
X197767600Y-80270552D01*
X197767600Y-80562647D01*
X197800299Y-80852871D01*
X197800301Y-80852883D01*
X197800302Y-80852886D01*
X197815136Y-80917880D01*
X197865296Y-81137644D01*
X197865297Y-81137646D01*
X197961765Y-81413338D01*
X198088493Y-81676490D01*
X198088495Y-81676493D01*
X198243892Y-81923806D01*
X198426002Y-82152165D01*
X198632535Y-82358698D01*
X198860894Y-82540808D01*
X199108207Y-82696205D01*
X199371363Y-82822935D01*
X199647055Y-82919403D01*
X199931814Y-82984398D01*
X199931823Y-82984399D01*
X199931828Y-82984400D01*
X200125310Y-83006199D01*
X200222053Y-83017099D01*
X200222056Y-83017100D01*
X200222059Y-83017100D01*
X200514144Y-83017100D01*
X200514145Y-83017099D01*
X200662471Y-83000387D01*
X200804371Y-82984400D01*
X200804374Y-82984399D01*
X200804386Y-82984398D01*
X201089145Y-82919403D01*
X201364837Y-82822935D01*
X201627993Y-82696205D01*
X201875306Y-82540808D01*
X202103665Y-82358698D01*
X202310198Y-82152165D01*
X202492308Y-81923806D01*
X202647705Y-81676493D01*
X202673080Y-81623802D01*
X202719903Y-81571943D01*
X202787330Y-81553630D01*
X202853954Y-81574678D01*
X202898622Y-81628404D01*
X202908800Y-81677604D01*
X202908800Y-91152800D01*
X202889115Y-91219839D01*
X202836311Y-91265594D01*
X202767153Y-91275538D01*
X202703597Y-91246513D01*
X202677413Y-91214800D01*
X202641617Y-91152800D01*
X202570436Y-91029511D01*
X202422765Y-90837062D01*
X202422760Y-90837056D01*
X202251243Y-90665539D01*
X202251236Y-90665533D01*
X202058793Y-90517867D01*
X202058792Y-90517866D01*
X202058789Y-90517864D01*
X201848712Y-90396576D01*
X201794484Y-90374114D01*
X201624604Y-90303747D01*
X201390285Y-90240961D01*
X201149789Y-90209300D01*
X201149788Y-90209300D01*
X200907212Y-90209300D01*
X200907211Y-90209300D01*
X200666714Y-90240961D01*
X200432395Y-90303747D01*
X200208294Y-90396573D01*
X200208285Y-90396577D01*
X199998206Y-90517867D01*
X199805763Y-90665533D01*
X199805756Y-90665539D01*
X199634239Y-90837056D01*
X199634233Y-90837063D01*
X199486567Y-91029506D01*
X199365277Y-91239585D01*
X199365273Y-91239594D01*
X199272447Y-91463695D01*
X199209661Y-91698014D01*
X199178000Y-91938511D01*
X199178000Y-91949042D01*
X199158315Y-92016081D01*
X199141681Y-92036723D01*
X198245794Y-92932609D01*
X198245790Y-92932613D01*
X198120851Y-93104579D01*
X198024344Y-93293985D01*
X197958653Y-93496160D01*
X197925400Y-93706113D01*
X197925400Y-102869042D01*
X197905715Y-102936081D01*
X197889081Y-102956723D01*
X194672947Y-106172856D01*
X194611624Y-106206341D01*
X194601452Y-106208114D01*
X194462959Y-106226347D01*
X194437862Y-106229652D01*
X194407061Y-106237905D01*
X194254693Y-106278731D01*
X194184843Y-106277068D01*
X194126981Y-106237905D01*
X194099477Y-106173676D01*
X194098600Y-106158956D01*
X194098600Y-103837869D01*
X194118285Y-103770830D01*
X194171089Y-103725075D01*
X194238783Y-103714930D01*
X194315843Y-103725075D01*
X194354011Y-103730100D01*
X194354012Y-103730100D01*
X194596589Y-103730100D01*
X194644688Y-103723767D01*
X194837089Y-103698438D01*
X195071400Y-103635654D01*
X195295512Y-103542824D01*
X195505589Y-103421536D01*
X195698038Y-103273865D01*
X195869565Y-103102338D01*
X196017236Y-102909889D01*
X196138524Y-102699812D01*
X196231354Y-102475700D01*
X196294138Y-102241389D01*
X196325800Y-102000888D01*
X196325800Y-101758312D01*
X196294138Y-101517811D01*
X196231354Y-101283500D01*
X196138524Y-101059388D01*
X196017236Y-100849311D01*
X195891222Y-100685086D01*
X195866028Y-100619917D01*
X195880066Y-100551472D01*
X195891222Y-100534114D01*
X195922186Y-100493761D01*
X196017236Y-100369889D01*
X196138524Y-100159812D01*
X196231354Y-99935700D01*
X196294138Y-99701389D01*
X196325800Y-99460888D01*
X196325800Y-99218312D01*
X196294138Y-98977811D01*
X196231354Y-98743500D01*
X196230313Y-98740988D01*
X196198776Y-98664849D01*
X196138524Y-98519388D01*
X196017236Y-98309311D01*
X195891222Y-98145086D01*
X195866028Y-98079917D01*
X195880066Y-98011472D01*
X195891222Y-97994114D01*
X195905020Y-97976132D01*
X196017236Y-97829889D01*
X196138524Y-97619812D01*
X196231354Y-97395700D01*
X196294138Y-97161389D01*
X196325800Y-96920888D01*
X196325800Y-96678312D01*
X196321110Y-96642691D01*
X196314740Y-96594299D01*
X196294138Y-96437811D01*
X196231354Y-96203500D01*
X196138524Y-95979388D01*
X196017236Y-95769311D01*
X195891222Y-95605086D01*
X195866028Y-95539917D01*
X195880066Y-95471472D01*
X195891222Y-95454114D01*
X195905020Y-95436132D01*
X196017236Y-95289889D01*
X196138524Y-95079812D01*
X196231354Y-94855700D01*
X196294138Y-94621389D01*
X196325800Y-94380888D01*
X196325800Y-94138312D01*
X196294138Y-93897811D01*
X196231354Y-93663500D01*
X196138524Y-93439388D01*
X196017236Y-93229311D01*
X195891222Y-93065086D01*
X195866028Y-92999917D01*
X195880066Y-92931472D01*
X195891222Y-92914114D01*
X195921503Y-92874651D01*
X196017236Y-92749889D01*
X196138524Y-92539812D01*
X196231354Y-92315700D01*
X196294138Y-92081389D01*
X196325800Y-91840888D01*
X196325800Y-91598312D01*
X196294138Y-91357811D01*
X196231354Y-91123500D01*
X196138524Y-90899388D01*
X196017236Y-90689311D01*
X195891222Y-90525086D01*
X195866028Y-90459917D01*
X195880066Y-90391472D01*
X195891222Y-90374114D01*
X195945217Y-90303746D01*
X196017236Y-90209889D01*
X196138524Y-89999812D01*
X196231354Y-89775700D01*
X196294138Y-89541389D01*
X196325800Y-89300888D01*
X196325800Y-89058312D01*
X196294138Y-88817811D01*
X196231354Y-88583500D01*
X196138524Y-88359388D01*
X196017236Y-88149311D01*
X195869565Y-87956862D01*
X195869560Y-87956856D01*
X195862119Y-87949415D01*
X195828634Y-87888092D01*
X195825800Y-87861734D01*
X195825800Y-71877513D01*
X195792546Y-71667560D01*
X195792546Y-71667557D01*
X195726857Y-71465388D01*
X195630351Y-71275984D01*
X195630349Y-71275981D01*
X195630348Y-71275979D01*
X195505409Y-71104013D01*
X193811344Y-69409948D01*
X193803146Y-69394934D01*
X193790908Y-69382984D01*
X193786749Y-69364906D01*
X193777859Y-69348625D01*
X193779079Y-69331564D01*
X193775244Y-69314893D01*
X193781519Y-69297435D01*
X193782843Y-69278933D01*
X193793214Y-69264905D01*
X193798881Y-69249143D01*
X193823539Y-69223891D01*
X193942614Y-69132522D01*
X194007783Y-69107328D01*
X194076228Y-69121366D01*
X194093586Y-69132522D01*
X194257811Y-69258536D01*
X194467888Y-69379824D01*
X194692000Y-69472654D01*
X194926311Y-69535438D01*
X195106686Y-69559184D01*
X195166811Y-69567100D01*
X195166812Y-69567100D01*
X195409389Y-69567100D01*
X195460387Y-69560386D01*
X195649889Y-69535438D01*
X195884200Y-69472654D01*
X196108312Y-69379824D01*
X196318389Y-69258536D01*
X196482614Y-69132522D01*
X196547783Y-69107328D01*
X196616228Y-69121366D01*
X196633586Y-69132522D01*
X196797811Y-69258536D01*
X197007888Y-69379824D01*
X197232000Y-69472654D01*
X197466311Y-69535438D01*
X197646686Y-69559184D01*
X197706811Y-69567100D01*
X197706812Y-69567100D01*
X197949389Y-69567100D01*
X198000387Y-69560386D01*
X198189889Y-69535438D01*
X198424200Y-69472654D01*
X198648312Y-69379824D01*
X198858389Y-69258536D01*
X199050838Y-69110865D01*
X199222365Y-68939338D01*
X199370036Y-68746889D01*
X199491324Y-68536812D01*
X199584154Y-68312700D01*
X199646938Y-68078389D01*
X199678600Y-67837888D01*
X199678600Y-67595312D01*
X199676970Y-67582934D01*
X199670684Y-67535186D01*
X199646938Y-67354811D01*
X199584154Y-67120500D01*
X199491324Y-66896388D01*
X199370036Y-66686311D01*
X199244022Y-66522086D01*
X199218828Y-66456917D01*
X199232866Y-66388472D01*
X199244022Y-66371114D01*
X199298710Y-66299843D01*
X199370036Y-66206889D01*
X199491324Y-65996812D01*
X199584154Y-65772700D01*
X199646938Y-65538389D01*
X199678600Y-65297888D01*
X199678600Y-65055312D01*
X199646938Y-64814811D01*
X199605036Y-64658432D01*
X199606699Y-64588586D01*
X199645861Y-64530724D01*
X199710089Y-64503219D01*
X199778992Y-64514805D01*
G37*
%TD.AperFunction*%
%TA.AperFunction,Conductor*%
G36*
X153628839Y-83460785D02*
G01*
X153674594Y-83513589D01*
X153685800Y-83565100D01*
X153685800Y-84163995D01*
X153666115Y-84231034D01*
X153613311Y-84276789D01*
X153544153Y-84286733D01*
X153523482Y-84281926D01*
X153364140Y-84230153D01*
X153202857Y-84204608D01*
X153154187Y-84196900D01*
X153154186Y-84196900D01*
X153011697Y-84196900D01*
X152944658Y-84177215D01*
X152936210Y-84171276D01*
X152926721Y-84163995D01*
X152828712Y-84088789D01*
X152629988Y-83974056D01*
X152629976Y-83974050D01*
X152417987Y-83886242D01*
X152196338Y-83826852D01*
X152158315Y-83821846D01*
X151968841Y-83796900D01*
X151968834Y-83796900D01*
X151739366Y-83796900D01*
X151739358Y-83796900D01*
X151535150Y-83823786D01*
X151511862Y-83826852D01*
X151418176Y-83851954D01*
X151290212Y-83886242D01*
X151078223Y-83974050D01*
X151078209Y-83974057D01*
X150879482Y-84088792D01*
X150697438Y-84228481D01*
X150535181Y-84390738D01*
X150395492Y-84572782D01*
X150280757Y-84771509D01*
X150280750Y-84771523D01*
X150192942Y-84983512D01*
X150133553Y-85205159D01*
X150133551Y-85205170D01*
X150103600Y-85432658D01*
X150103600Y-85662141D01*
X150128546Y-85851615D01*
X150133552Y-85889638D01*
X150192942Y-86111287D01*
X150280750Y-86323276D01*
X150280757Y-86323290D01*
X150395492Y-86522017D01*
X150535181Y-86704061D01*
X150535189Y-86704070D01*
X150697430Y-86866311D01*
X150697438Y-86866318D01*
X150879482Y-87006007D01*
X150879485Y-87006008D01*
X150879488Y-87006011D01*
X151078212Y-87120744D01*
X151078217Y-87120746D01*
X151078223Y-87120749D01*
X151140259Y-87146445D01*
X151290213Y-87208558D01*
X151511862Y-87267948D01*
X151739366Y-87297900D01*
X151739373Y-87297900D01*
X151968827Y-87297900D01*
X151968834Y-87297900D01*
X152196338Y-87267948D01*
X152417987Y-87208558D01*
X152610974Y-87128619D01*
X152680440Y-87121151D01*
X152742920Y-87152426D01*
X152746105Y-87155500D01*
X154935670Y-89345065D01*
X154935684Y-89345080D01*
X154938795Y-89348191D01*
X154938796Y-89348192D01*
X155089108Y-89498504D01*
X155089111Y-89498506D01*
X155089114Y-89498509D01*
X155148129Y-89541385D01*
X155201404Y-89580091D01*
X155261084Y-89623451D01*
X155450488Y-89719957D01*
X155652657Y-89785646D01*
X155862613Y-89818901D01*
X155862614Y-89818901D01*
X156080298Y-89818901D01*
X156080322Y-89818900D01*
X157517143Y-89818900D01*
X157584182Y-89838585D01*
X157604824Y-89855219D01*
X159136681Y-91387076D01*
X159170166Y-91448399D01*
X159173000Y-91474757D01*
X159173000Y-92272028D01*
X159173001Y-92272034D01*
X159183613Y-92391415D01*
X159239589Y-92587045D01*
X159239590Y-92587048D01*
X159239591Y-92587049D01*
X159324653Y-92749893D01*
X159333805Y-92767412D01*
X159402191Y-92851281D01*
X159429300Y-92915677D01*
X159417290Y-92984507D01*
X159413477Y-92991640D01*
X159360275Y-93083789D01*
X159360273Y-93083794D01*
X159267447Y-93307895D01*
X159204661Y-93542214D01*
X159173000Y-93782711D01*
X159173000Y-94025288D01*
X159204661Y-94265785D01*
X159267447Y-94500104D01*
X159317685Y-94621389D01*
X159360276Y-94724212D01*
X159481564Y-94934289D01*
X159481566Y-94934292D01*
X159481567Y-94934293D01*
X159607577Y-95098514D01*
X159632771Y-95163683D01*
X159618732Y-95232128D01*
X159607577Y-95249486D01*
X159481567Y-95413706D01*
X159360277Y-95623785D01*
X159360273Y-95623794D01*
X159267447Y-95847895D01*
X159204661Y-96082214D01*
X159173000Y-96322711D01*
X159173000Y-96565288D01*
X159204661Y-96805785D01*
X159267447Y-97040104D01*
X159317685Y-97161389D01*
X159360276Y-97264212D01*
X159481564Y-97474289D01*
X159481566Y-97474292D01*
X159481567Y-97474293D01*
X159607577Y-97638514D01*
X159632771Y-97703683D01*
X159618732Y-97772128D01*
X159607577Y-97789486D01*
X159481567Y-97953706D01*
X159360277Y-98163785D01*
X159360273Y-98163794D01*
X159267447Y-98387895D01*
X159204661Y-98622214D01*
X159173000Y-98862711D01*
X159173000Y-99105288D01*
X159204661Y-99345785D01*
X159267447Y-99580104D01*
X159317685Y-99701389D01*
X159360276Y-99804212D01*
X159481564Y-100014289D01*
X159481566Y-100014292D01*
X159481567Y-100014293D01*
X159629233Y-100206736D01*
X159629239Y-100206743D01*
X159800756Y-100378260D01*
X159800762Y-100378265D01*
X159993211Y-100525936D01*
X160203288Y-100647224D01*
X160294695Y-100685086D01*
X160387528Y-100723539D01*
X160441931Y-100767380D01*
X160463996Y-100833674D01*
X160446717Y-100901373D01*
X160395580Y-100948984D01*
X160340075Y-100962100D01*
X156691589Y-100962100D01*
X156624550Y-100942415D01*
X156578795Y-100889611D01*
X156568851Y-100820453D01*
X156597876Y-100756897D01*
X156603908Y-100750419D01*
X156892227Y-100462100D01*
X157239217Y-100115110D01*
X157378043Y-99924034D01*
X157485268Y-99713592D01*
X157558253Y-99488969D01*
X157580931Y-99345785D01*
X157595200Y-99255697D01*
X157595200Y-98714278D01*
X157614885Y-98647239D01*
X157631521Y-98626595D01*
X157635905Y-98622211D01*
X157650267Y-98607849D01*
X157799135Y-98413840D01*
X157921406Y-98202060D01*
X158014989Y-97976132D01*
X158078281Y-97739922D01*
X158110200Y-97497471D01*
X158110200Y-97252929D01*
X158078281Y-97010478D01*
X158014989Y-96774268D01*
X157921406Y-96548340D01*
X157896359Y-96504958D01*
X157799135Y-96336560D01*
X157679529Y-96180686D01*
X157654335Y-96115517D01*
X157668373Y-96047072D01*
X157679529Y-96029714D01*
X157718145Y-95979388D01*
X157799135Y-95873840D01*
X157921406Y-95662060D01*
X158014989Y-95436132D01*
X158078281Y-95199922D01*
X158110200Y-94957471D01*
X158110200Y-94712929D01*
X158078281Y-94470478D01*
X158014989Y-94234268D01*
X157921406Y-94008340D01*
X157883046Y-93941899D01*
X157799135Y-93796560D01*
X157650268Y-93602552D01*
X157650262Y-93602545D01*
X157477354Y-93429637D01*
X157477347Y-93429631D01*
X157283339Y-93280764D01*
X157071563Y-93158495D01*
X157071553Y-93158491D01*
X156845630Y-93064910D01*
X156727527Y-93033265D01*
X156609422Y-93001619D01*
X156609416Y-93001618D01*
X156609411Y-93001617D01*
X156366981Y-92969701D01*
X156366976Y-92969700D01*
X156366971Y-92969700D01*
X155822429Y-92969700D01*
X155822423Y-92969700D01*
X155822418Y-92969701D01*
X155579988Y-93001617D01*
X155579981Y-93001618D01*
X155579978Y-93001619D01*
X155530058Y-93014994D01*
X155343769Y-93064910D01*
X155117846Y-93158491D01*
X155117836Y-93158495D01*
X154906060Y-93280764D01*
X154712052Y-93429631D01*
X154712045Y-93429637D01*
X154693302Y-93448381D01*
X154631979Y-93481866D01*
X154605621Y-93484700D01*
X152898888Y-93484700D01*
X152831849Y-93465015D01*
X152823401Y-93459075D01*
X152727122Y-93385196D01*
X152727116Y-93385192D01*
X152727112Y-93385189D01*
X152649045Y-93340117D01*
X152528391Y-93270457D01*
X152528376Y-93270450D01*
X152316387Y-93182642D01*
X152094738Y-93123252D01*
X152056715Y-93118246D01*
X151867241Y-93093300D01*
X151867234Y-93093300D01*
X151637766Y-93093300D01*
X151637758Y-93093300D01*
X151421215Y-93121809D01*
X151410262Y-93123252D01*
X151278747Y-93158491D01*
X151188613Y-93182642D01*
X151188597Y-93182647D01*
X151121350Y-93210502D01*
X151101474Y-93212638D01*
X151082744Y-93219625D01*
X151067447Y-93216297D01*
X151051881Y-93217971D01*
X151034004Y-93209022D01*
X151014471Y-93204773D01*
X150992178Y-93188085D01*
X150989402Y-93186695D01*
X150986217Y-93183622D01*
X150956448Y-93153853D01*
X150922963Y-93092530D01*
X150924354Y-93034080D01*
X150933048Y-93001638D01*
X150963000Y-92774134D01*
X150963000Y-92544666D01*
X150933048Y-92317162D01*
X150873658Y-92095513D01*
X150808626Y-91938512D01*
X150785849Y-91883523D01*
X150785846Y-91883517D01*
X150785844Y-91883512D01*
X150671111Y-91684788D01*
X150671108Y-91684785D01*
X150671107Y-91684782D01*
X150531418Y-91502738D01*
X150531411Y-91502730D01*
X150369170Y-91340489D01*
X150369161Y-91340481D01*
X150187117Y-91200792D01*
X149988390Y-91086057D01*
X149988376Y-91086050D01*
X149776387Y-90998242D01*
X149554738Y-90938852D01*
X149516715Y-90933846D01*
X149327241Y-90908900D01*
X149327234Y-90908900D01*
X149097766Y-90908900D01*
X149097758Y-90908900D01*
X148881215Y-90937409D01*
X148870262Y-90938852D01*
X148776576Y-90963954D01*
X148648612Y-90998242D01*
X148436623Y-91086050D01*
X148436609Y-91086057D01*
X148237882Y-91200792D01*
X148055838Y-91340481D01*
X147893581Y-91502738D01*
X147753892Y-91684782D01*
X147639157Y-91883509D01*
X147639150Y-91883523D01*
X147551342Y-92095512D01*
X147517054Y-92223476D01*
X147504046Y-92272028D01*
X147491953Y-92317159D01*
X147491951Y-92317170D01*
X147462000Y-92544658D01*
X147462000Y-92774141D01*
X147483033Y-92933895D01*
X147491952Y-93001638D01*
X147533980Y-93158491D01*
X147551342Y-93223287D01*
X147639150Y-93435276D01*
X147639157Y-93435290D01*
X147753892Y-93634017D01*
X147814145Y-93712539D01*
X147893581Y-93816061D01*
X148019422Y-93941902D01*
X148042223Y-93973285D01*
X148082849Y-94053017D01*
X148207789Y-94224984D01*
X148207793Y-94224988D01*
X148207796Y-94224992D01*
X148288116Y-94305312D01*
X148362438Y-94379634D01*
X148362449Y-94379644D01*
X149706395Y-95723591D01*
X149856713Y-95873909D01*
X150028679Y-95998848D01*
X150028681Y-95998849D01*
X150028684Y-95998851D01*
X150218088Y-96095357D01*
X150420257Y-96161046D01*
X150420260Y-96161046D01*
X150420261Y-96161047D01*
X150478061Y-96170201D01*
X150607656Y-96190727D01*
X150663743Y-96214824D01*
X150777882Y-96302407D01*
X150777885Y-96302408D01*
X150777888Y-96302411D01*
X150976612Y-96417144D01*
X150976617Y-96417146D01*
X150976623Y-96417149D01*
X151037945Y-96442549D01*
X151188613Y-96504958D01*
X151410262Y-96564348D01*
X151637766Y-96594300D01*
X151637773Y-96594300D01*
X151867227Y-96594300D01*
X151867234Y-96594300D01*
X152094738Y-96564348D01*
X152316387Y-96504958D01*
X152528388Y-96417144D01*
X152727112Y-96302411D01*
X152797550Y-96248361D01*
X152845819Y-96211324D01*
X152910988Y-96186130D01*
X152921305Y-96185700D01*
X154262590Y-96185700D01*
X154329629Y-96205385D01*
X154375384Y-96258189D01*
X154385328Y-96327347D01*
X154369977Y-96371700D01*
X154267995Y-96548337D01*
X154267991Y-96548346D01*
X154174410Y-96774269D01*
X154152528Y-96855935D01*
X154111265Y-97009935D01*
X154111120Y-97010475D01*
X154111117Y-97010488D01*
X154079201Y-97252918D01*
X154079200Y-97252935D01*
X154079200Y-97497464D01*
X154079201Y-97497481D01*
X154111117Y-97739911D01*
X154111118Y-97739916D01*
X154111119Y-97739922D01*
X154135227Y-97829893D01*
X154174410Y-97976130D01*
X154267991Y-98202053D01*
X154267995Y-98202063D01*
X154390264Y-98413839D01*
X154456995Y-98500805D01*
X154457271Y-98501519D01*
X154457886Y-98501980D01*
X154469848Y-98534054D01*
X154482189Y-98565974D01*
X154482034Y-98566725D01*
X154482303Y-98567445D01*
X154475024Y-98600904D01*
X154468150Y-98634419D01*
X154467559Y-98635217D01*
X154467451Y-98635718D01*
X154446303Y-98663969D01*
X154291490Y-98818782D01*
X154230169Y-98852266D01*
X154203811Y-98855100D01*
X144271930Y-98855100D01*
X144204891Y-98835415D01*
X144159136Y-98782611D01*
X144149192Y-98713453D01*
X144173554Y-98655614D01*
X144278085Y-98519385D01*
X144315335Y-98470840D01*
X144437606Y-98259060D01*
X144531189Y-98033132D01*
X144594481Y-97796922D01*
X144626400Y-97554471D01*
X144626400Y-97009929D01*
X144619800Y-96959800D01*
X144630565Y-96890768D01*
X144655055Y-96855938D01*
X144868304Y-96642689D01*
X144929625Y-96609206D01*
X144939779Y-96607436D01*
X145074138Y-96589748D01*
X145295787Y-96530358D01*
X145507788Y-96442544D01*
X145706512Y-96327811D01*
X145888561Y-96188119D01*
X145888565Y-96188114D01*
X145888570Y-96188111D01*
X146050811Y-96025870D01*
X146050814Y-96025865D01*
X146050819Y-96025861D01*
X146190511Y-95843812D01*
X146305244Y-95645088D01*
X146393058Y-95433087D01*
X146452448Y-95211438D01*
X146482400Y-94983934D01*
X146482400Y-94754466D01*
X146452448Y-94526962D01*
X146393058Y-94305313D01*
X146305244Y-94093312D01*
X146190511Y-93894588D01*
X146190508Y-93894585D01*
X146190507Y-93894582D01*
X146050818Y-93712538D01*
X146050811Y-93712530D01*
X145888570Y-93550289D01*
X145888561Y-93550281D01*
X145706517Y-93410592D01*
X145507790Y-93295857D01*
X145507776Y-93295850D01*
X145295787Y-93208042D01*
X145283587Y-93204773D01*
X145074138Y-93148652D01*
X145036115Y-93143646D01*
X144846641Y-93118700D01*
X144846634Y-93118700D01*
X144617166Y-93118700D01*
X144617158Y-93118700D01*
X144400615Y-93147209D01*
X144389662Y-93148652D01*
X144352942Y-93158491D01*
X144168012Y-93208042D01*
X143956023Y-93295850D01*
X143956009Y-93295857D01*
X143757282Y-93410592D01*
X143575238Y-93550281D01*
X143412981Y-93712538D01*
X143273292Y-93894582D01*
X143158557Y-94093309D01*
X143158550Y-94093323D01*
X143087113Y-94265789D01*
X143070742Y-94305313D01*
X143018549Y-94500104D01*
X143011353Y-94526959D01*
X143011351Y-94526970D01*
X142993665Y-94661301D01*
X142965398Y-94725198D01*
X142958407Y-94732796D01*
X142414765Y-95276438D01*
X142359178Y-95308532D01*
X142159967Y-95361911D01*
X141934046Y-95455491D01*
X141934036Y-95455495D01*
X141722260Y-95577764D01*
X141566386Y-95697370D01*
X141501217Y-95722564D01*
X141432772Y-95708525D01*
X141415414Y-95697370D01*
X141259539Y-95577764D01*
X141047763Y-95455495D01*
X141047753Y-95455491D01*
X140821830Y-95361910D01*
X140703727Y-95330265D01*
X140585622Y-95298619D01*
X140546141Y-95293421D01*
X140366770Y-95269806D01*
X140302874Y-95241539D01*
X140295275Y-95234548D01*
X137858819Y-92798092D01*
X137825334Y-92736769D01*
X137822500Y-92710411D01*
X137822500Y-86055188D01*
X137842185Y-85988149D01*
X137858815Y-85967511D01*
X138409108Y-85417217D01*
X138470431Y-85383733D01*
X138496789Y-85380899D01*
X140381928Y-85380899D01*
X140381936Y-85380899D01*
X140501318Y-85370286D01*
X140696949Y-85314309D01*
X140877307Y-85220098D01*
X141035009Y-85091509D01*
X141163598Y-84933807D01*
X141257809Y-84753449D01*
X141313786Y-84557818D01*
X141324400Y-84438437D01*
X141324400Y-84428700D01*
X141344085Y-84361661D01*
X141396889Y-84315906D01*
X141448400Y-84304700D01*
X144135245Y-84304700D01*
X144202284Y-84324385D01*
X144248039Y-84377189D01*
X144257983Y-84446347D01*
X144231347Y-84507060D01*
X144220802Y-84519993D01*
X144193224Y-84572788D01*
X144126589Y-84700354D01*
X144070614Y-84895983D01*
X144070613Y-84895986D01*
X144060000Y-85015366D01*
X144060000Y-86831428D01*
X144060001Y-86831434D01*
X144070613Y-86950815D01*
X144126589Y-87146445D01*
X144126590Y-87146448D01*
X144126591Y-87146449D01*
X144220802Y-87326807D01*
X144220804Y-87326809D01*
X144349390Y-87484509D01*
X144443303Y-87561084D01*
X144507093Y-87613098D01*
X144687451Y-87707309D01*
X144883082Y-87763286D01*
X145002463Y-87773900D01*
X146818536Y-87773899D01*
X146937918Y-87763286D01*
X147133549Y-87707309D01*
X147313907Y-87613098D01*
X147471609Y-87484509D01*
X147600198Y-87326807D01*
X147694409Y-87146449D01*
X147750386Y-86950818D01*
X147761000Y-86831437D01*
X147760999Y-85667087D01*
X147780684Y-85600049D01*
X147797313Y-85579412D01*
X149595017Y-83781710D01*
X149899308Y-83477419D01*
X149960631Y-83443934D01*
X149986989Y-83441100D01*
X153561800Y-83441100D01*
X153628839Y-83460785D01*
G37*
%TD.AperFunction*%
%TA.AperFunction,Conductor*%
G36*
X164215134Y-74919374D02*
G01*
X164271067Y-74961246D01*
X164295484Y-75026710D01*
X164295800Y-75035556D01*
X164295800Y-75316068D01*
X164276115Y-75383107D01*
X164270176Y-75391554D01*
X164146030Y-75553345D01*
X164028019Y-75757743D01*
X164028014Y-75757754D01*
X163937694Y-75975806D01*
X163876606Y-76203789D01*
X163845801Y-76437779D01*
X163845800Y-76437795D01*
X163845800Y-76673804D01*
X163845801Y-76673820D01*
X163870962Y-76864941D01*
X163876607Y-76907814D01*
X163923188Y-77081657D01*
X163937694Y-77135793D01*
X164028014Y-77353845D01*
X164028019Y-77353856D01*
X164098977Y-77476757D01*
X164146027Y-77558250D01*
X164146029Y-77558253D01*
X164146030Y-77558254D01*
X164289706Y-77745497D01*
X164289712Y-77745504D01*
X164456595Y-77912387D01*
X164456602Y-77912393D01*
X164516381Y-77958263D01*
X164643850Y-78056073D01*
X164775218Y-78131918D01*
X164848243Y-78174080D01*
X164848248Y-78174082D01*
X164848251Y-78174084D01*
X165066307Y-78264406D01*
X165294286Y-78325493D01*
X165528289Y-78356300D01*
X165528296Y-78356300D01*
X165764304Y-78356300D01*
X165764311Y-78356300D01*
X165998314Y-78325493D01*
X166226293Y-78264406D01*
X166444349Y-78174084D01*
X166648750Y-78056073D01*
X166776219Y-77958263D01*
X166839220Y-77909921D01*
X166840114Y-77911086D01*
X166863372Y-77900296D01*
X166891472Y-77885410D01*
X166894847Y-77885694D01*
X166897919Y-77884269D01*
X166929417Y-77888605D01*
X166961095Y-77891273D01*
X166964711Y-77893464D01*
X166967135Y-77893798D01*
X166991856Y-77908577D01*
X166995872Y-77911663D01*
X166996601Y-77912392D01*
X167145888Y-78026943D01*
X167146591Y-78027484D01*
X167167160Y-78055696D01*
X167187724Y-78083858D01*
X167187726Y-78083903D01*
X167187754Y-78083941D01*
X167189789Y-78118520D01*
X167191879Y-78153604D01*
X167191856Y-78153644D01*
X167191859Y-78153690D01*
X167190076Y-78156858D01*
X167158716Y-78213487D01*
X166621824Y-78750381D01*
X166560501Y-78783866D01*
X166534143Y-78786700D01*
X159678458Y-78786700D01*
X159611419Y-78767015D01*
X159590777Y-78750381D01*
X159053883Y-78213487D01*
X159045705Y-78198511D01*
X159033490Y-78186600D01*
X159029308Y-78168482D01*
X159020398Y-78152164D01*
X159021615Y-78135144D01*
X159017778Y-78118520D01*
X159024055Y-78101018D01*
X159025382Y-78082472D01*
X159035733Y-78068460D01*
X159041368Y-78052753D01*
X159065954Y-78027557D01*
X159066008Y-78027484D01*
X159066031Y-78027465D01*
X159215999Y-77912392D01*
X159216727Y-77911663D01*
X159220744Y-77908577D01*
X159249728Y-77897347D01*
X159277919Y-77884269D01*
X159282027Y-77884834D01*
X159285895Y-77883336D01*
X159316346Y-77889559D01*
X159347135Y-77893798D01*
X159351820Y-77896808D01*
X159354350Y-77897326D01*
X159357685Y-77900578D01*
X159372997Y-77910419D01*
X159373380Y-77909921D01*
X159461363Y-77977432D01*
X159563850Y-78056073D01*
X159695218Y-78131918D01*
X159768243Y-78174080D01*
X159768248Y-78174082D01*
X159768251Y-78174084D01*
X159986307Y-78264406D01*
X160214286Y-78325493D01*
X160448289Y-78356300D01*
X160448296Y-78356300D01*
X160684304Y-78356300D01*
X160684311Y-78356300D01*
X160918314Y-78325493D01*
X161146293Y-78264406D01*
X161364349Y-78174084D01*
X161568750Y-78056073D01*
X161755999Y-77912392D01*
X161922892Y-77745499D01*
X162066573Y-77558250D01*
X162184584Y-77353849D01*
X162274906Y-77135793D01*
X162335993Y-76907814D01*
X162362612Y-76705619D01*
X162390878Y-76641723D01*
X162397858Y-76634136D01*
X164084119Y-74947874D01*
X164145442Y-74914390D01*
X164215134Y-74919374D01*
G37*
%TD.AperFunction*%
%TA.AperFunction,Conductor*%
G36*
X146996806Y-64387785D02*
G01*
X147042561Y-64440589D01*
X147052505Y-64509747D01*
X147050658Y-64519687D01*
X147034933Y-64588586D01*
X147000302Y-64740314D01*
X147000299Y-64740328D01*
X146967600Y-65030552D01*
X146967600Y-65322647D01*
X147000299Y-65612871D01*
X147000302Y-65612885D01*
X147065296Y-65897644D01*
X147065297Y-65897646D01*
X147161765Y-66173338D01*
X147288493Y-66436490D01*
X147306434Y-66465043D01*
X147443892Y-66683806D01*
X147626002Y-66912165D01*
X147832535Y-67118698D01*
X148060894Y-67300808D01*
X148308207Y-67456205D01*
X148571363Y-67582935D01*
X148847055Y-67679403D01*
X149131814Y-67744398D01*
X149131823Y-67744399D01*
X149131828Y-67744400D01*
X149325310Y-67766199D01*
X149422053Y-67777099D01*
X149422056Y-67777100D01*
X149422059Y-67777100D01*
X149714144Y-67777100D01*
X149714145Y-67777099D01*
X149862471Y-67760387D01*
X150004371Y-67744400D01*
X150004374Y-67744399D01*
X150004386Y-67744398D01*
X150289145Y-67679403D01*
X150564837Y-67582935D01*
X150827993Y-67456205D01*
X151075306Y-67300808D01*
X151075315Y-67300800D01*
X151077838Y-67299011D01*
X151143902Y-67276267D01*
X151211776Y-67292850D01*
X151259908Y-67343496D01*
X151273600Y-67400136D01*
X151273600Y-68624628D01*
X151273600Y-68624633D01*
X151273601Y-68624636D01*
X151275671Y-68647930D01*
X151284213Y-68744015D01*
X151340189Y-68939645D01*
X151340190Y-68939648D01*
X151340191Y-68939649D01*
X151434402Y-69120007D01*
X151469077Y-69162533D01*
X151562990Y-69277709D01*
X151649963Y-69348625D01*
X151720693Y-69406298D01*
X151901051Y-69500509D01*
X152096682Y-69556486D01*
X152216063Y-69567100D01*
X154032136Y-69567099D01*
X154151518Y-69556486D01*
X154347149Y-69500509D01*
X154527507Y-69406298D01*
X154611379Y-69337908D01*
X154675774Y-69310799D01*
X154744604Y-69322808D01*
X154751739Y-69326623D01*
X154843877Y-69379818D01*
X154843880Y-69379819D01*
X154843888Y-69379824D01*
X155068000Y-69472654D01*
X155302311Y-69535438D01*
X155482686Y-69559184D01*
X155542811Y-69567100D01*
X155542812Y-69567100D01*
X155785389Y-69567100D01*
X155836387Y-69560386D01*
X156025889Y-69535438D01*
X156260200Y-69472654D01*
X156484312Y-69379824D01*
X156694389Y-69258536D01*
X156858614Y-69132522D01*
X156923783Y-69107328D01*
X156992228Y-69121366D01*
X157009586Y-69132522D01*
X157173811Y-69258536D01*
X157383888Y-69379824D01*
X157608000Y-69472654D01*
X157842311Y-69535438D01*
X158022686Y-69559184D01*
X158082811Y-69567100D01*
X158082812Y-69567100D01*
X158325389Y-69567100D01*
X158376387Y-69560386D01*
X158565889Y-69535438D01*
X158800200Y-69472654D01*
X159024312Y-69379824D01*
X159234389Y-69258536D01*
X159426838Y-69110865D01*
X159598365Y-68939338D01*
X159746036Y-68746889D01*
X159867324Y-68536812D01*
X159960154Y-68312700D01*
X160022938Y-68078389D01*
X160054600Y-67837888D01*
X160054600Y-67595312D01*
X160052970Y-67582934D01*
X160046684Y-67535186D01*
X160022938Y-67354811D01*
X159960154Y-67120500D01*
X159867324Y-66896388D01*
X159746036Y-66686311D01*
X159620022Y-66522086D01*
X159594828Y-66456917D01*
X159608866Y-66388472D01*
X159620022Y-66371114D01*
X159674710Y-66299843D01*
X159746036Y-66206889D01*
X159867324Y-65996812D01*
X159960154Y-65772700D01*
X160022938Y-65538389D01*
X160054600Y-65297888D01*
X160054600Y-65055312D01*
X160022938Y-64814811D01*
X159960154Y-64580500D01*
X159943191Y-64539549D01*
X159935724Y-64470082D01*
X159967000Y-64407603D01*
X160027089Y-64371951D01*
X160057754Y-64368100D01*
X161430446Y-64368100D01*
X161497485Y-64387785D01*
X161543240Y-64440589D01*
X161553184Y-64509747D01*
X161545009Y-64539546D01*
X161528046Y-64580500D01*
X161528044Y-64580506D01*
X161465261Y-64814814D01*
X161433600Y-65055311D01*
X161433600Y-65297888D01*
X161465261Y-65538385D01*
X161528047Y-65772704D01*
X161579800Y-65897646D01*
X161620876Y-65996812D01*
X161742164Y-66206889D01*
X161742166Y-66206892D01*
X161742167Y-66206893D01*
X161868177Y-66371114D01*
X161893371Y-66436283D01*
X161879332Y-66504728D01*
X161868177Y-66522086D01*
X161742167Y-66686306D01*
X161742164Y-66686310D01*
X161742164Y-66686311D01*
X161733908Y-66700611D01*
X161620877Y-66896385D01*
X161620873Y-66896394D01*
X161528047Y-67120495D01*
X161465261Y-67354814D01*
X161433600Y-67595311D01*
X161433600Y-67837888D01*
X161465261Y-68078387D01*
X161517432Y-68273091D01*
X161515769Y-68342941D01*
X161485338Y-68392865D01*
X158646224Y-71231981D01*
X158584901Y-71265466D01*
X158558543Y-71268300D01*
X148166231Y-71268300D01*
X148099192Y-71248615D01*
X148090745Y-71242676D01*
X147928954Y-71118530D01*
X147928953Y-71118529D01*
X147928950Y-71118527D01*
X147847457Y-71071477D01*
X147724556Y-71000519D01*
X147724545Y-71000514D01*
X147506493Y-70910194D01*
X147278510Y-70849106D01*
X147044520Y-70818301D01*
X147044517Y-70818300D01*
X147044511Y-70818300D01*
X146808489Y-70818300D01*
X146808483Y-70818300D01*
X146808479Y-70818301D01*
X146574489Y-70849106D01*
X146346506Y-70910194D01*
X146128454Y-71000514D01*
X146128443Y-71000519D01*
X145924046Y-71118529D01*
X145921085Y-71120802D01*
X145855915Y-71145995D01*
X145787471Y-71131956D01*
X145737482Y-71083141D01*
X145721600Y-71022425D01*
X145721600Y-68380265D01*
X145741285Y-68313226D01*
X145757923Y-68292580D01*
X145765365Y-68285138D01*
X145913036Y-68092689D01*
X146034324Y-67882612D01*
X146127154Y-67658500D01*
X146189938Y-67424189D01*
X146221600Y-67183688D01*
X146221600Y-66941112D01*
X146189938Y-66700611D01*
X146127154Y-66466300D01*
X146034324Y-66242188D01*
X145913036Y-66032111D01*
X145765365Y-65839662D01*
X145765360Y-65839656D01*
X145593843Y-65668139D01*
X145593836Y-65668133D01*
X145401393Y-65520467D01*
X145401392Y-65520466D01*
X145401389Y-65520464D01*
X145191312Y-65399176D01*
X145191305Y-65399173D01*
X144967204Y-65306347D01*
X144732885Y-65243561D01*
X144492389Y-65211900D01*
X144492388Y-65211900D01*
X144249812Y-65211900D01*
X144249811Y-65211900D01*
X144009314Y-65243561D01*
X143774995Y-65306347D01*
X143550894Y-65399173D01*
X143550885Y-65399177D01*
X143340806Y-65520467D01*
X143148363Y-65668133D01*
X143148356Y-65668139D01*
X142976839Y-65839656D01*
X142976833Y-65839663D01*
X142829167Y-66032106D01*
X142829164Y-66032110D01*
X142829164Y-66032111D01*
X142827506Y-66034983D01*
X142707877Y-66242185D01*
X142707873Y-66242194D01*
X142615047Y-66466295D01*
X142552261Y-66700614D01*
X142520600Y-66941111D01*
X142520600Y-67183688D01*
X142552261Y-67424185D01*
X142615047Y-67658504D01*
X142689351Y-67837888D01*
X142707876Y-67882612D01*
X142829164Y-68092689D01*
X142829166Y-68092692D01*
X142829167Y-68092693D01*
X142976833Y-68285136D01*
X142984277Y-68292580D01*
X143017765Y-68353901D01*
X143020600Y-68380265D01*
X143020600Y-72989087D01*
X143053854Y-73199043D01*
X143106754Y-73361853D01*
X143119544Y-73401214D01*
X143216051Y-73590620D01*
X143340989Y-73762584D01*
X143340993Y-73762588D01*
X143340996Y-73762592D01*
X143426618Y-73848214D01*
X143495638Y-73917234D01*
X143495649Y-73917244D01*
X144600995Y-75022591D01*
X144751313Y-75172909D01*
X144923279Y-75297848D01*
X144923281Y-75297849D01*
X144923284Y-75297851D01*
X145112688Y-75394357D01*
X145314857Y-75460046D01*
X145524813Y-75493300D01*
X147839743Y-75493300D01*
X147906782Y-75512985D01*
X147927424Y-75529619D01*
X148754672Y-76356868D01*
X148788157Y-76418191D01*
X148783173Y-76487883D01*
X148741301Y-76543816D01*
X148699087Y-76564323D01*
X148674016Y-76571041D01*
X148674012Y-76571042D01*
X148462023Y-76658850D01*
X148462008Y-76658857D01*
X148263288Y-76773588D01*
X148221992Y-76805276D01*
X148156823Y-76830470D01*
X148146506Y-76830900D01*
X141110392Y-76830900D01*
X141043353Y-76811215D01*
X140997598Y-76758411D01*
X140987654Y-76689253D01*
X140995831Y-76659447D01*
X141040506Y-76551593D01*
X141101593Y-76323614D01*
X141132400Y-76089611D01*
X141132400Y-75853589D01*
X141101593Y-75619586D01*
X141040506Y-75391607D01*
X140950184Y-75173551D01*
X140950182Y-75173548D01*
X140950180Y-75173543D01*
X140885709Y-75061877D01*
X140832173Y-74969150D01*
X140794296Y-74919788D01*
X140688489Y-74781896D01*
X140687767Y-74781073D01*
X140687629Y-74780775D01*
X140686021Y-74778680D01*
X140686490Y-74778320D01*
X140658368Y-74717690D01*
X140657000Y-74699320D01*
X140657000Y-73858531D01*
X140676685Y-73791492D01*
X140682624Y-73783045D01*
X140747151Y-73698951D01*
X140806773Y-73621250D01*
X140924784Y-73416849D01*
X141015106Y-73198793D01*
X141076193Y-72970814D01*
X141107000Y-72736811D01*
X141107000Y-72500789D01*
X141076193Y-72266786D01*
X141015106Y-72038807D01*
X140924784Y-71820751D01*
X140924782Y-71820748D01*
X140924780Y-71820743D01*
X140882618Y-71747718D01*
X140806773Y-71616350D01*
X140663092Y-71429101D01*
X140663087Y-71429095D01*
X140496204Y-71262212D01*
X140496197Y-71262206D01*
X140308954Y-71118530D01*
X140308953Y-71118529D01*
X140308950Y-71118527D01*
X140227457Y-71071477D01*
X140104556Y-71000519D01*
X140104545Y-71000514D01*
X139886493Y-70910194D01*
X139658510Y-70849106D01*
X139456320Y-70822487D01*
X139392424Y-70794220D01*
X139384825Y-70787229D01*
X138137919Y-69540323D01*
X138104434Y-69479000D01*
X138101600Y-69452642D01*
X138101600Y-68853751D01*
X138102187Y-68851751D01*
X138101665Y-68849733D01*
X138111988Y-68818373D01*
X138121285Y-68786712D01*
X138123065Y-68784723D01*
X138123512Y-68783366D01*
X138129738Y-68777269D01*
X138147477Y-68757456D01*
X138153311Y-68752722D01*
X138154507Y-68752098D01*
X138238617Y-68683515D01*
X138270602Y-68670143D01*
X138302774Y-68656599D01*
X138302932Y-68656626D01*
X138303080Y-68656565D01*
X138337390Y-68662638D01*
X138371604Y-68668608D01*
X138371847Y-68668738D01*
X138371880Y-68668744D01*
X138371909Y-68668771D01*
X138378739Y-68672423D01*
X138470877Y-68725618D01*
X138470880Y-68725619D01*
X138470888Y-68725624D01*
X138695000Y-68818454D01*
X138929311Y-68881238D01*
X139109686Y-68904984D01*
X139169811Y-68912900D01*
X139169812Y-68912900D01*
X139412389Y-68912900D01*
X139460488Y-68906567D01*
X139652889Y-68881238D01*
X139887200Y-68818454D01*
X140111312Y-68725624D01*
X140321389Y-68604336D01*
X140513838Y-68456665D01*
X140685365Y-68285138D01*
X140833036Y-68092689D01*
X140954324Y-67882612D01*
X141047154Y-67658500D01*
X141109938Y-67424189D01*
X141141600Y-67183688D01*
X141141600Y-67173157D01*
X141161285Y-67106118D01*
X141177919Y-67085476D01*
X143858976Y-64404419D01*
X143920299Y-64370934D01*
X143946657Y-64368100D01*
X146929767Y-64368100D01*
X146996806Y-64387785D01*
G37*
%TD.AperFunction*%
%TD*%
M02*
