M48
; DRILL file {KiCad 9.0.0} date 2025-06-22T11:44:27-0300
; FORMAT={-:-/ absolute / metric / decimal}
; #@! TF.CreationDate,2025-06-22T11:44:27-03:00
; #@! TF.GenerationSoftware,Kicad,Pcbnew,9.0.0
; #@! TF.FileFunction,Plated,1,2,PTH
FMAT,2
METRIC
; #@! TA.AperFunction,Plated,PTH,ViaDrill
T1C0.600
; #@! TA.AperFunction,Plated,PTH,ComponentDrill
T2C0.800
; #@! TA.AperFunction,Plated,PTH,ComponentDrill
T3C0.900
; #@! TA.AperFunction,Plated,PTH,ComponentDrill
T4C1.000
; #@! TA.AperFunction,Plated,PTH,ComponentDrill
T5C1.020
; #@! TA.AperFunction,Plated,PTH,ComponentDrill
T6C1.520
; #@! TA.AperFunction,Plated,PTH,ComponentDrill
T7C3.200
%
G90
G05
T1
X144.732Y-94.869
X149.213Y-92.659
X149.238Y-78.232
X151.752Y-94.844
X151.829Y-88.443
X151.854Y-74.905
X151.854Y-85.547
X163.106Y-78.537
X171.031Y-81.56
X173.266Y-88.468
X182.486Y-107.95
X183.426Y-105.334
X194.755Y-105.334
X194.78Y-107.95
T2
X137.808Y-110.973
X139.306Y-72.619
X139.332Y-75.972
X145.428Y-110.973
X146.927Y-72.619
X146.952Y-75.972
X155.486Y-76.556
X155.486Y-84.176
X158.026Y-76.556
X158.026Y-84.176
X160.566Y-76.556
X160.566Y-84.176
X163.106Y-76.556
X163.106Y-84.176
X165.646Y-76.556
X165.646Y-84.176
X168.186Y-76.556
X168.186Y-84.176
X170.726Y-76.556
X170.726Y-84.176
X173.266Y-76.556
X173.266Y-84.176
T3
X155.951Y-112.192
X158.491Y-112.192
T4
X136.751Y-67.062
X138.755Y-102.313
X139.291Y-67.062
X141.294Y-102.313
X141.831Y-67.062
X143.834Y-102.313
X144.371Y-67.062
X145.91Y-85.923
X145.91Y-88.463
X146.374Y-102.313
X153.124Y-65.177
X153.124Y-67.717
X155.664Y-65.177
X155.664Y-67.717
X158.204Y-65.177
X158.204Y-67.717
X160.744Y-65.177
X160.744Y-67.717
X161.023Y-91.364
X161.023Y-93.904
X161.023Y-96.444
X161.023Y-98.984
X162.268Y-113.437
X162.308Y-110.907
X163.284Y-65.177
X163.284Y-67.717
X164.808Y-113.437
X164.848Y-110.907
X165.824Y-65.177
X165.824Y-67.717
X167.348Y-113.437
X167.388Y-110.907
X168.364Y-65.177
X168.364Y-67.717
X169.888Y-113.437
X169.928Y-110.907
X170.904Y-65.177
X170.904Y-67.717
X172.428Y-113.437
X172.468Y-110.907
X173.444Y-65.177
X173.444Y-67.717
X174.968Y-113.437
X175.008Y-110.907
X175.984Y-65.177
X175.984Y-67.717
X177.508Y-113.437
X177.548Y-110.907
X180.048Y-65.177
X180.048Y-67.717
X180.048Y-113.437
X180.088Y-110.907
X181.216Y-75.514
X182.588Y-65.177
X182.588Y-67.717
X183.756Y-75.514
X185.128Y-65.177
X185.128Y-67.717
X185.128Y-110.897
X185.128Y-113.437
X186.296Y-75.514
X187.668Y-65.177
X187.668Y-67.717
X187.668Y-110.897
X187.668Y-113.437
X188.837Y-75.514
X190.208Y-65.177
X190.208Y-67.717
X190.208Y-110.897
X190.208Y-113.437
X192.748Y-65.177
X192.748Y-67.717
X192.748Y-110.897
X192.748Y-113.437
X194.475Y-89.18
X194.475Y-91.72
X194.475Y-94.26
X194.475Y-96.8
X194.475Y-99.34
X194.475Y-101.88
X195.288Y-65.177
X195.288Y-67.717
X195.288Y-110.897
X195.288Y-113.437
X197.015Y-89.18
X197.015Y-91.72
X197.015Y-94.26
X197.015Y-96.8
X197.015Y-99.34
X197.015Y-101.88
X197.828Y-65.177
X197.828Y-67.717
X197.828Y-110.897
X197.828Y-113.437
X201.028Y-89.52
X201.028Y-92.06
X201.028Y-94.6
X201.028Y-97.14
T5
X140.221Y-97.282
X142.761Y-97.282
X145.301Y-97.282
X156.095Y-92.295
X156.095Y-94.835
X156.095Y-97.375
X182.105Y-81.128
X184.645Y-81.128
X187.185Y-81.128
T6
X138.824Y-82.88
X138.824Y-87.96
T7
X148.298Y-113.437
X149.568Y-65.177
X200.368Y-80.417
X200.368Y-108.357
M30
