M48
; DRILL file {KiCad 9.0.0} date 2025-06-22T11:24:20-0300
; FORMAT={-:-/ absolute / metric / decimal}
; #@! TF.CreationDate,2025-06-22T11:24:20-03:00
; #@! TF.GenerationSoftware,Kicad,Pcbnew,9.0.0
; #@! TF.FileFunction,Plated,1,2,PTH
FMAT,2
METRIC
; #@! TA.AperFunction,Plated,PTH,ViaDrill
T1C0.600
; #@! TA.AperFunction,Plated,PTH,ComponentDrill
T2C0.800
; #@! TA.AperFunction,Plated,PTH,ComponentDrill
T3C0.900
; #@! TA.AperFunction,Plated,PTH,ComponentDrill
T4C1.000
; #@! TA.AperFunction,Plated,PTH,ComponentDrill
T5C1.020
%
G90
G05
T1
X139.774Y-61.138
X139.774Y-65.735
X139.774Y-116.332
X139.774Y-120.93
X139.781Y-88.501
X139.781Y-93.099
X141.502Y-56.947
X141.502Y-112.141
X141.509Y-84.31
X141.531Y-55.247
X141.531Y-110.441
X141.538Y-82.611
X145.934Y-53.975
X145.934Y-109.169
X145.941Y-81.339
X145.947Y-58.344
X145.947Y-113.538
X145.954Y-85.707
X151.814Y-52.426
X151.814Y-107.62
X151.821Y-79.789
X151.839Y-47.117
X151.839Y-102.311
X151.846Y-74.481
X178.562Y-61.113
X178.562Y-65.71
X178.562Y-116.307
X178.562Y-120.904
X178.613Y-88.494
X178.613Y-93.091
X180.289Y-56.922
X180.289Y-112.116
X180.318Y-55.222
X180.318Y-110.416
X180.34Y-84.303
X180.369Y-82.603
X184.722Y-53.95
X184.722Y-109.144
X184.734Y-58.319
X184.734Y-113.513
X184.772Y-81.331
X184.785Y-85.7
X190.602Y-52.4
X190.602Y-107.595
X190.627Y-47.092
X190.627Y-102.286
X190.653Y-79.782
X190.678Y-74.473
T2
X122.112Y-64.55
X122.112Y-119.744
X122.119Y-91.913
X129.732Y-64.55
X129.732Y-119.744
X129.739Y-91.913
X130.721Y-52.384
X130.721Y-60.004
X130.721Y-107.578
X130.721Y-115.198
X130.728Y-79.747
X130.728Y-87.367
X133.261Y-52.384
X133.261Y-60.004
X133.261Y-107.578
X133.261Y-115.198
X133.268Y-79.747
X133.268Y-87.367
X135.383Y-64.525
X135.383Y-119.719
X135.39Y-91.888
X135.801Y-52.384
X135.801Y-60.004
X135.801Y-107.578
X135.801Y-115.198
X135.808Y-79.747
X135.808Y-87.367
X137.137Y-49.327
X137.137Y-104.521
X137.144Y-76.69
X137.883Y-64.525
X137.883Y-119.719
X137.89Y-91.888
X138.341Y-52.384
X138.341Y-60.004
X138.341Y-107.578
X138.341Y-115.198
X138.348Y-79.747
X138.348Y-87.367
X140.881Y-52.384
X140.881Y-60.004
X140.881Y-107.578
X140.881Y-115.198
X140.888Y-79.747
X140.888Y-87.367
X141.744Y-64.525
X141.744Y-119.719
X141.751Y-91.888
X142.137Y-49.327
X142.137Y-104.521
X142.144Y-76.69
X143.421Y-52.384
X143.421Y-60.004
X143.421Y-107.578
X143.421Y-115.198
X143.428Y-79.747
X143.428Y-87.367
X144.244Y-64.525
X144.244Y-119.719
X144.251Y-91.888
X145.961Y-52.384
X145.961Y-60.004
X145.961Y-107.578
X145.961Y-115.198
X145.968Y-79.747
X145.968Y-87.367
X148.501Y-52.384
X148.501Y-60.004
X148.501Y-107.578
X148.501Y-115.198
X148.508Y-79.747
X148.508Y-87.367
X160.9Y-64.524
X160.9Y-119.719
X160.95Y-91.906
X168.52Y-64.524
X168.52Y-119.719
X168.57Y-91.906
X169.508Y-52.358
X169.508Y-59.978
X169.508Y-107.552
X169.508Y-115.172
X169.559Y-79.739
X169.559Y-87.359
X172.048Y-52.358
X172.048Y-59.978
X172.048Y-107.552
X172.048Y-115.172
X172.099Y-79.739
X172.099Y-87.359
X174.171Y-64.499
X174.171Y-119.694
X174.221Y-91.881
X174.588Y-52.358
X174.588Y-59.978
X174.588Y-107.552
X174.588Y-115.172
X174.639Y-79.739
X174.639Y-87.359
X175.924Y-49.302
X175.924Y-104.496
X175.975Y-76.683
X176.671Y-64.499
X176.671Y-119.694
X176.721Y-91.881
X177.128Y-52.358
X177.128Y-59.978
X177.128Y-107.552
X177.128Y-115.172
X177.179Y-79.739
X177.179Y-87.359
X179.668Y-52.358
X179.668Y-59.978
X179.668Y-107.552
X179.668Y-115.172
X179.719Y-79.739
X179.719Y-87.359
X180.532Y-64.499
X180.532Y-119.694
X180.583Y-91.881
X180.924Y-49.302
X180.924Y-104.496
X180.975Y-76.683
X182.208Y-52.358
X182.208Y-59.978
X182.208Y-107.552
X182.208Y-115.172
X182.259Y-79.739
X182.259Y-87.359
X183.032Y-64.499
X183.032Y-119.694
X183.083Y-91.881
X184.748Y-52.358
X184.748Y-59.978
X184.748Y-107.552
X184.748Y-115.172
X184.799Y-79.739
X184.799Y-87.359
X187.288Y-52.358
X187.288Y-59.978
X187.288Y-107.552
X187.288Y-115.172
X187.339Y-79.739
X187.339Y-87.359
T3
X151.22Y-65.286
X151.22Y-120.481
X151.227Y-92.65
X153.76Y-65.286
X153.76Y-120.481
X153.767Y-92.65
X190.008Y-65.261
X190.008Y-120.455
X190.059Y-92.642
X192.548Y-65.261
X192.548Y-120.455
X192.599Y-92.642
T4
X126.694Y-52.451
X126.694Y-54.991
X126.694Y-57.531
X126.694Y-60.071
X126.694Y-107.645
X126.694Y-110.185
X126.694Y-112.725
X126.694Y-115.265
X126.7Y-79.815
X126.7Y-82.355
X126.7Y-84.895
X126.7Y-87.435
X153.719Y-52.451
X153.719Y-54.991
X153.719Y-57.531
X153.719Y-60.071
X153.719Y-107.645
X153.719Y-110.185
X153.719Y-112.725
X153.719Y-115.265
X153.726Y-79.815
X153.726Y-82.355
X153.726Y-84.895
X153.726Y-87.435
X165.481Y-52.426
X165.481Y-54.966
X165.481Y-57.506
X165.481Y-60.046
X165.481Y-107.62
X165.481Y-110.16
X165.481Y-112.7
X165.481Y-115.24
X165.532Y-79.807
X165.532Y-82.347
X165.532Y-84.887
X165.532Y-87.427
X192.507Y-52.426
X192.507Y-54.966
X192.507Y-57.506
X192.507Y-60.046
X192.507Y-107.62
X192.507Y-110.16
X192.507Y-112.7
X192.507Y-115.24
X192.558Y-79.807
X192.558Y-82.347
X192.558Y-84.887
X192.558Y-87.427
T5
X121.79Y-53.459
X121.79Y-55.999
X121.79Y-58.539
X121.79Y-108.653
X121.79Y-111.193
X121.79Y-113.733
X121.797Y-80.822
X121.797Y-83.362
X121.797Y-85.902
X160.578Y-53.433
X160.578Y-55.973
X160.578Y-58.513
X160.578Y-108.627
X160.578Y-111.167
X160.578Y-113.707
X160.629Y-80.814
X160.629Y-83.354
X160.629Y-85.894
M30
