<?xml version="1.0" encoding="utf-8"?>
<!-- Generator: Adobe Illustrator 22.0.1, SVG Export Plug-In . SVG Version: 6.00 Build 0)  -->
<svg version="1.1" xmlns="http://www.w3.org/2000/svg" xmlns:xlink="http://www.w3.org/1999/xlink" x="0px" y="0px" width="566.9px"
	 height="425.2px" viewBox="0 0 566.9 425.2" style="enable-background:new 0 0 566.9 425.2;" xml:space="preserve">
<style type="text/css">
	.st0{fill:none;stroke:#000000;stroke-width:0.5;stroke-linecap:round;stroke-linejoin:round;stroke-miterlimit:10;}
	.st1{fill:none;stroke:#000000;stroke-width:0.5;stroke-miterlimit:10;stroke-dasharray:2,2;}
	.st2{fill:none;stroke:#000000;stroke-width:0.7087;stroke-linecap:round;stroke-linejoin:round;stroke-miterlimit:10;}
	.st3{font-family:'ArialMT';}
	.st4{font-size:7px;}
	.st5{font-size:12px;}
</style>
<g id="Contour">
	<path class="st0" d="M419.1,195.9h-12.8c-2.3,0-4.3-1.9-4.3-4.3V88.2c0-3.1-2.5-5.7-5.7-5.7H351c-3.1,0-5.7,2.5-5.7,5.7v229.6
		c0,3.1,2.5,5.7,5.7,5.7h45.4c3.1,0,5.7-2.5,5.7-5.7v-83.6c0-2.3,1.9-4.3,4.3-4.3h12.8c9.4,0,17-7.6,17-17S428.5,195.9,419.1,195.9z
		 M373.7,90.3c3.5,0,6.4,2.9,6.4,6.4c0,3.5-2.9,6.4-6.4,6.4c-3.5,0-6.4-2.9-6.4-6.4C367.3,93.1,370.2,90.3,373.7,90.3z M389.3,302.2
		h-31.2c-2.3,0-4.3-1.9-4.3-4.3c0-2.3,1.9-4.3,4.3-4.3h31.2c2.3,0,4.3,1.9,4.3,4.3C393.5,300.3,391.6,302.2,389.3,302.2z
		 M373.7,265.9c2,0,3.7,1.6,3.7,3.7c0,2-1.6,3.7-3.7,3.7c-2,0-3.7-1.6-3.7-3.7C370,267.5,371.7,265.9,373.7,265.9z M370,156.2
		c0-2,1.6-3.7,3.7-3.7c2,0,3.7,1.6,3.7,3.7s-1.6,3.7-3.7,3.7C371.7,159.9,370,158.2,370,156.2z M389.3,134.9h-31.2
		c-2.3,0-4.3-1.9-4.3-4.3c0-2.3,1.9-4.3,4.3-4.3h31.2c2.3,0,4.3,1.9,4.3,4.3C393.5,133,391.6,134.9,389.3,134.9z M419.1,220
		c-3.9,0-7.1-3.2-7.1-7.1c0-3.9,3.2-7.1,7.1-7.1s7.1,3.2,7.1,7.1C426.1,216.8,423,220,419.1,220z"/>
	<g>
		<path class="st0" d="M257.5,339.4v-0.1c0,0,0,0,0,0L257.5,339.4z"/>
		<polygon class="st0" points="314.2,339.3 314.2,339.3 314.2,339.3 		"/>
		<path class="st0" d="M314.2,186.3V92.2c0-1.6-1.3-2.8-2.8-2.8c-0.8,0-1.5,0.3-2,0.8l-17.5,17.5c-3.3,3.3-8.7,3.3-12,0l-17.5-17.5
			c-1.1-1.1-2.9-1.1-4,0c-0.5,0.5-0.8,1.3-0.8,2V158c-1.3,2.4-1.3,5.4,0,7.8v35.1v0.5c0,1.5,0.8,2.9,2.1,3.7
			c1.3,0.8,2.1,2.2,2.1,3.7c0,2.3-1.9,4.3-4.3,4.3H141.3c-4.7,0-8.5,3.8-8.5,8.5v39.7c0,4.7,3.8,8.5,8.5,8.5h116.2
			c1.5,0,2.9,0.8,3.7,2.1c1.2,2,0.5,4.6-1.6,5.8c-1.3,0.8-2.1,2.2-2.1,3.7v58.1c0,1.6,1.3,2.8,2.8,2.8c0.8,0,1.5-0.3,2-0.8
			l17.5-17.5c3.3-3.3,8.7-3.3,12,0l17.5,17.5c1.1,1.1,2.9,1.1,4,0c0.5-0.5,0.8-1.2,0.8-2V194.1C315.5,191.7,315.5,188.7,314.2,186.3
			z M161.1,248.6c-4.1,0-7.4-3.3-7.4-7.4s3.3-7.4,7.4-7.4s7.4,3.3,7.4,7.4S165.2,248.6,161.1,248.6z M193.7,256.9
			c0,2.3-1.9,4.3-4.3,4.3c-2.3,0-4.3-1.9-4.3-4.3v-31.2c0-2.3,1.9-4.3,4.3-4.3c2.3,0,4.3,1.9,4.3,4.3V256.9z M261.7,256.9
			c0,2.3-1.9,4.3-4.3,4.3c-2.3,0-4.3-1.9-4.3-4.3v-31.2c0-2.3,1.9-4.3,4.3-4.3c2.3,0,4.3,1.9,4.3,4.3V256.9z M270.2,126.4h1.3
			c0.1,0,0.3-0.1,0.3-0.2c0.8-4,4.3-6.9,8.3-6.9h11.3c4.1,0,7.6,2.9,8.3,6.9c0,0.1,0.1,0.2,0.3,0.2h1.3c2.3,0,4.3,1.9,4.3,4.3
			c0,2.3-1.9,4.3-4.3,4.3h-5.7c-2.3,0-4.3-1.9-4.3-4.3c0-1.6-1.3-2.8-2.8-2.8H283c-1.6,0-2.8,1.3-2.8,2.8c0,2.3-1.9,4.3-4.3,4.3
			h-5.7c-2.3,0-4.3-1.9-4.3-4.3C266,128.3,267.9,126.4,270.2,126.4z M260.3,161.9c0-2.3,1.9-4.3,4.3-4.3c2.3,0,4.3,1.9,4.3,4.3
			c0,2.3-1.9,4.3-4.3,4.3C262.2,166.1,260.3,164.2,260.3,161.9z M301.4,302.2h-31.2c-2.3,0-4.3-1.9-4.3-4.3c0-2.3,1.9-4.3,4.3-4.3
			h31.2c2.3,0,4.3,1.9,4.3,4.3C305.7,300.3,303.8,302.2,301.4,302.2z M307.1,194.5c-2.3,0-4.3-1.9-4.3-4.3c0-2.3,1.9-4.3,4.3-4.3
			c2.3,0,4.3,1.9,4.3,4.3C311.3,192.6,309.4,194.5,307.1,194.5z"/>
	</g>
</g>
<g id="Bendlines">
	<g id="LINE_36_">
		<line class="st1" x1="254.6" y1="130.7" x2="246.1" y2="130.7"/>
	</g>
	<g id="LINE_37_">
		<line class="st1" x1="317" y1="130.7" x2="325.5" y2="130.7"/>
	</g>
	<g id="LINE_38_">
		<line class="st1" x1="254.6" y1="297.9" x2="246.1" y2="297.9"/>
	</g>
	<g id="LINE_39_">
		<line class="st1" x1="317" y1="297.9" x2="325.5" y2="297.9"/>
	</g>
	<g id="LINE_40_">
		<line class="st1" x1="342.5" y1="297.9" x2="334" y2="297.9"/>
	</g>
	<g id="LINE_41_">
		<line class="st1" x1="404.9" y1="297.9" x2="413.4" y2="297.9"/>
	</g>
	<g id="LINE_42_">
		<line class="st1" x1="342.5" y1="130.7" x2="334" y2="130.7"/>
	</g>
	<g id="LINE_43_">
		<line class="st1" x1="404.9" y1="130.7" x2="413.4" y2="130.7"/>
	</g>
	<g id="LINE_44_">
		<line class="st1" x1="189.5" y1="210.1" x2="189.5" y2="201.6"/>
	</g>
	<g id="LINE_45_">
		<line class="st1" x1="189.5" y1="272.5" x2="189.5" y2="281"/>
	</g>
</g>
<g id="Explanation">
	<g id="LINE_48_">
		<line class="st2" x1="377.4" y1="156.2" x2="382.3" y2="156"/>
	</g>
	<g id="MTEXT">
		<text transform="matrix(1 0 0 1 415.9362 152.439)"><tspan x="0" y="0" class="st3 st4">T</tspan><tspan x="3.5" y="0" class="st3 st4">ab M3</tspan></text>
	</g>
	<g id="MTEXT_1_">
		<text transform="matrix(1 0 0 1 415.8872 89.8929)"><tspan x="0" y="0" class="st3 st4">T</tspan><tspan x="3.5" y="0" class="st3 st4">ab M5</tspan></text>
	</g>
	<g id="MLEADER_1_">
		<polygon points="385.1,96.9 380.1,96.7 384.9,95.2 		"/>
		<line class="st2" x1="385" y1="96" x2="414.3" y2="92.4"/>
	</g>
	<g id="MTEXT_2_">
		<text transform="matrix(1 0 0 1 166.7186 192.6794)" class="st3 st4">Bend</text>
	</g>
	<g id="MLEADER_2_">
		<polygon points="185.7,198.3 189.5,201.6 184.8,199.7 		"/>
		<line class="st2" x1="185.2" y1="199" x2="179.3" y2="195.2"/>
	</g>
	<g id="MTEXT_3_">
		<text transform="matrix(1 0 0 1 131.4728 193.7561)"><tspan x="0" y="0" class="st3 st4">T</tspan><tspan x="3.5" y="0" class="st3 st4">ab M6</tspan></text>
	</g>
	<g id="MLEADER_3_">
		<polygon points="156.2,230.8 156.1,235.8 154.6,231.1 		"/>
		<line class="st2" x1="155.4" y1="230.9" x2="150.4" y2="196.3"/>
	</g>
	<g id="MTEXT_4_">
		<text transform="matrix(1 0 0 1 415.9268 258.9046)"><tspan x="0" y="0" class="st3 st4">T</tspan><tspan x="3.5" y="0" class="st3 st4">ab M3</tspan></text>
	</g>
	<g id="SOLID">
		<polygon points="382.3,155.2 382.4,156.8 377.4,156.2 		"/>
	</g>
	<g id="MLEADER">
		<line class="st2" x1="382.3" y1="156" x2="414.3" y2="155"/>
	</g>
	<g id="MLEADER_4_">
		<polygon points="382.4,269.3 377.4,269.6 382.1,267.7 		"/>
		<line class="st2" x1="382.2" y1="268.5" x2="414.3" y2="261.4"/>
	</g>
	<text transform="matrix(1 0 0 1 135.3458 375.6227)"><tspan x="0" y="0" class="st3 st5">Universal Pen Holder - Zenzi</tspan><tspan x="153.4" y="0" class="st3 st5">W</tspan><tspan x="164.5" y="0" class="st3 st5">erken - 3 mm aluminum</tspan></text>
</g>
</svg>
